<svg width="68" height="46" viewBox="0 0 68 46" fill="none" xmlns="http://www.w3.org/2000/svg">
<path fill-rule="evenodd" clip-rule="evenodd" d="M19.3662 29.2976H22.1139L19.3662 24.7181L17.0457 20.8616L7.18503 26.7841L8.69104 29.2976H19.3662ZM44.929 29.2976H58.3519L49.9965 15.3766L40.7569 0.0102539L36.9507 2.3L30.906 5.93272L36.9507 15.9973L44.929 29.2976ZM40.2382 33.8876C39.2914 33.2774 38.182 32.9209 36.9811 32.9209H36.9507C33.6336 32.9412 30.9368 35.6481 30.9368 38.9656C30.9368 42.2835 33.6336 44.99 36.9507 45.0106H36.9811C38.182 45.0106 39.2914 44.6545 40.2382 44.044V44.6748H43.016V29.2983H40.2382V33.8876ZM40.2381 39.5964C39.9432 41.123 38.5893 42.2929 36.981 42.2929H36.9507C35.1291 42.2726 33.6538 40.7868 33.6538 38.9652C33.6538 37.144 35.1291 35.6582 36.9507 35.6477H36.981C38.5893 35.6477 39.9428 36.8082 40.2381 38.3344V39.5964ZM53.284 33.8872C52.3156 33.2553 51.184 32.9193 50.0276 32.9206H49.9965C46.6794 32.9408 43.9829 35.6477 43.9829 38.9652C43.9829 42.2831 46.6794 44.9896 49.9965 45.0103H50.0276C51.2285 45.0103 52.3477 44.6542 53.284 44.0436V44.6744H56.0625V33.2257H53.284V33.8872ZM53.284 39.5964C52.989 41.123 51.6352 42.2929 50.0276 42.2929H49.9965C48.1756 42.2726 46.7 40.7868 46.7 38.9652C46.7 37.144 48.1756 35.6582 49.9965 35.6477H50.0276C51.6352 35.6477 52.9886 36.8082 53.284 38.3344V39.5964ZM65.9433 38.2125C65.8418 38.1612 65.699 38.1106 65.5359 38.0495C64.9152 37.8358 63.9077 37.5712 62.5033 37.2661C61.272 36.991 60.6513 36.6353 60.6513 36.1874C60.6513 35.8718 60.763 35.6173 60.9767 35.4344C61.2619 35.19 61.7702 35.0678 62.5033 35.0678C63.2462 35.0678 63.7855 35.2309 64.1011 35.5461C64.2945 35.7395 64.4366 36.0851 64.5284 36.5739H67.4797C67.4797 35.1289 66.8894 34.0911 65.7293 33.4602C65.6682 33.4203 65.6035 33.3863 65.5359 33.3587C64.7316 32.982 63.6634 32.7886 62.3305 32.7886C60.7121 32.7886 59.4913 33.2162 58.6775 34.0809C58.0265 34.7729 57.7109 35.6173 57.7109 36.6147C57.7109 37.8568 58.3211 38.7519 59.5628 39.3321C60.031 39.5559 61.1704 39.8715 62.9823 40.2583C64.1933 40.5229 64.8032 40.8996 64.8032 41.3778C64.8032 41.6631 64.6817 41.9071 64.4171 42.1308C64.0809 42.4157 63.5719 42.5585 62.8905 42.5585C61.9845 42.5585 61.3436 42.4059 60.9673 42.111C60.5902 41.8261 60.3968 41.4089 60.3968 40.8797H57.3035C57.3035 42.2841 57.8938 43.3321 59.0842 44.0237C60.031 44.563 61.2724 44.8381 62.8095 44.8381C63.8369 44.8381 64.7526 44.665 65.5363 44.3295C65.6993 44.2583 65.8421 44.1867 65.9947 44.1054C67.2057 43.4341 67.8163 42.3655 67.8163 40.9003C67.8159 39.6983 67.1945 38.8025 65.9433 38.2125ZM9.4849 33.8872C8.51216 33.2565 7.37769 32.9208 6.21837 32.9206H6.18765C2.88064 32.9408 0.183838 35.6477 0.183838 38.9652C0.183838 42.2831 2.88064 44.9896 6.18765 45.0103H6.21837C7.41928 45.0103 8.53849 44.6542 9.4849 44.0436V44.6744H12.263V33.2257H9.4849V33.8872ZM9.4849 39.5964C9.18991 41.123 7.83609 42.2929 6.21837 42.2929H6.18765C4.37653 42.2726 2.90088 40.7868 2.90088 38.9652C2.90088 37.144 4.37653 35.6582 6.18765 35.6477H6.21837C7.83645 35.6477 9.18991 36.8082 9.4849 38.3344V39.5964ZM26.8254 32.015H29.8479V29.3587H26.8254V32.015ZM26.8254 44.6741H29.8479V32.9206H26.8254V44.6741ZM22.6633 33.8876C21.6905 33.2568 20.5559 32.9211 19.3965 32.9209H19.3661C16.0486 32.9412 13.3518 35.6481 13.3518 38.9656C13.3518 42.2835 16.0482 44.99 19.3661 45.0106H19.3965C20.5559 45.0106 21.6906 44.6748 22.6633 44.044V44.6748H25.4415V29.2983H22.6633V33.8876ZM22.6634 39.5964C22.3684 41.123 21.0146 42.2929 19.3965 42.2929H19.3662C17.5446 42.2726 16.0689 40.7868 16.0689 38.9652C16.0689 37.144 17.5446 35.6582 19.3662 35.6477H19.3965C21.0146 35.6477 22.3681 36.8082 22.6634 38.3344V39.5964ZM40.2274 29.2979L36.9507 23.8233L28.9016 10.4312L19.3662 16.1707L19.0405 16.3637L19.3662 16.9031L26.815 29.2979H40.2274Z" fill="#A5C4FF"/>
</svg>