<svg width="20" height="21" viewBox="0 0 20 21" fill="none" xmlns="http://www.w3.org/2000/svg">
<path d="M18.9224 10.2526L13.0891 4.41923C12.9319 4.26743 12.7214 4.18344 12.5029 4.18533C12.2844 4.18723 12.0754 4.27487 11.9209 4.42938C11.7664 4.58389 11.6788 4.7929 11.6769 5.0114C11.675 5.22989 11.759 5.44039 11.9108 5.59756L16.3216 10.0084H1.66659C1.44557 10.0084 1.23361 10.0962 1.07733 10.2525C0.921049 10.4088 0.833252 10.6207 0.833252 10.8417C0.833252 11.0627 0.921049 11.2747 1.07733 11.431C1.23361 11.5873 1.44557 11.6751 1.66659 11.6751H16.3216L11.9108 16.0859C11.8312 16.1628 11.7677 16.2547 11.724 16.3564C11.6803 16.4581 11.6573 16.5674 11.6564 16.6781C11.6554 16.7887 11.6765 16.8984 11.7184 17.0009C11.7603 17.1033 11.8222 17.1963 11.9004 17.2746C11.9787 17.3528 12.0717 17.4147 12.1741 17.4566C12.2765 17.4985 12.3863 17.5196 12.4969 17.5186C12.6076 17.5176 12.7169 17.4947 12.8186 17.451C12.9203 17.4073 13.0122 17.3438 13.0891 17.2642L18.9224 11.4309C19.0786 11.2746 19.1664 11.0627 19.1664 10.8417C19.1664 10.6208 19.0786 10.4088 18.9224 10.2526Z" fill="#FBFBFB"/>
</svg>