<svg width="10" height="19" viewBox="0 0 10 19" fill="none" xmlns="http://www.w3.org/2000/svg">
<path d="M9.62334 0.195255L7.22476 0.191406C4.53003 0.191406 2.78858 1.9781 2.78858 4.74347V6.84228H0.37691C0.168513 6.84228 -0.000244141 7.01123 -0.000244141 7.21963V10.2606C-0.000244141 10.469 0.168706 10.6377 0.37691 10.6377H2.78858V18.311C2.78858 18.5194 2.95734 18.6881 3.16573 18.6881H6.31228C6.52067 18.6881 6.68943 18.5192 6.68943 18.311V10.6377H9.50923C9.71763 10.6377 9.88639 10.469 9.88639 10.2606L9.88754 7.21963C9.88754 7.11957 9.84771 7.02374 9.77709 6.95293C9.70647 6.88211 9.61026 6.84228 9.5102 6.84228H6.68943V5.06309C6.68943 4.20795 6.89321 3.77383 8.00716 3.77383L9.62296 3.77325C9.83116 3.77325 9.99992 3.6043 9.99992 3.39609V0.572413C9.99992 0.364399 9.83135 0.19564 9.62334 0.195255Z" fill="#FBFBFB"/>
</svg>