<svg width="72" height="73" viewBox="0 0 72 73" fill="none" xmlns="http://www.w3.org/2000/svg">
<rect y="0.00732422" width="72" height="72" rx="6" fill="#FFEAB3"/>
<path d="M18.6667 49.3513H20V48.018H18.6667C17.9302 48.018 17.3333 47.4211 17.3333 46.6846V20.018C17.3333 19.2815 17.9302 18.6847 18.6667 18.6847H48C48.7365 18.6847 49.3333 19.2815 49.3333 20.018V21.3513H50.6667V20.018C50.6667 18.5453 49.4727 17.3513 48 17.3513H18.6667C17.194 17.3513 16 18.5453 16 20.018V46.6846C16 48.1573 17.194 49.3513 18.6667 49.3513Z" fill="#FAB400"/>
<path d="M18.6667 20.018H20.0001V21.3513H18.6667V20.018Z" fill="#FAB400"/>
<path d="M21.3333 20.018H22.6666V21.3513H21.3333V20.018Z" fill="#FAB400"/>
<path d="M24 20.018H25.3333V21.3513H24V20.018Z" fill="#FAB400"/>
<path d="M21.3333 52.018C21.3333 53.4906 22.5273 54.6846 23.9999 54.6846H53.3332C54.8059 54.6846 55.9999 53.4906 55.9999 52.018V25.3513C55.9999 23.8786 54.8059 22.6846 53.3332 22.6846H23.9999C22.5273 22.6846 21.3333 23.8786 21.3333 25.3513V52.018ZM22.6666 25.3513C22.6666 24.6148 23.2634 24.018 23.9999 24.018H53.3332C54.0697 24.018 54.6666 24.6148 54.6666 25.3513V52.018C54.6666 52.7545 54.0697 53.3513 53.3332 53.3513H23.9999C23.2634 53.3513 22.6666 52.7545 22.6666 52.018V25.3513Z" fill="#FAB400"/>
<path d="M24 25.3513H25.3333V26.6847H24V25.3513Z" fill="#FAB400"/>
<path d="M26.6667 25.3513H28.0001V26.6847H26.6667V25.3513Z" fill="#FAB400"/>
<path d="M29.3333 25.3513H30.6666V26.6847H29.3333V25.3513Z" fill="#FAB400"/>
<path d="M24 28.018H53.3333V29.3513H24V28.018Z" fill="#FAB400"/>
<path d="M24 31.3513H29.3333V32.6847H24V31.3513Z" fill="#FAB400"/>
<path d="M24 34.018H28V35.3513H24V34.018Z" fill="#FAB400"/>
<path d="M38.6667 36.6846C36.0892 36.6846 34 38.7738 34 41.3513C34 43.9288 36.0892 46.018 38.6667 46.018C41.2442 46.018 43.3333 43.9288 43.3333 41.3513C43.3303 38.7753 41.2427 36.6876 38.6667 36.6846ZM38.6667 44.6846C36.8258 44.6846 35.3333 43.1921 35.3333 41.3513C35.3333 39.5105 36.8258 38.018 38.6667 38.018C40.5075 38.018 42 39.5105 42 41.3513C41.9977 43.1913 40.5067 44.6823 38.6667 44.6846Z" fill="#FAB400"/>
<path d="M49.3333 39.3513C49.3333 38.983 49.035 38.6846 48.6667 38.6846H46.9047C46.7635 38.2466 46.5875 37.8205 46.3773 37.4113L47.6233 36.1661C47.8833 35.9056 47.8833 35.4838 47.6233 35.2233L44.7947 32.3946C44.5342 32.1346 44.1123 32.1346 43.8518 32.3946L42.6067 33.64C42.1968 33.4306 41.771 33.2546 41.3333 33.1133V31.3513C41.3333 30.983 41.035 30.6846 40.6667 30.6846H36.6667C36.2983 30.6846 36 30.983 36 31.3513V33.1133C35.5623 33.2546 35.1365 33.4306 34.7267 33.64L33.4815 32.3946C33.221 32.1346 32.7992 32.1346 32.5387 32.3946L29.71 35.2233C29.45 35.4838 29.45 35.9056 29.71 36.1661L30.9553 37.4113C30.8997 37.5205 30.846 37.63 30.7953 37.7406C30.6547 38.048 30.5323 38.363 30.4287 38.6846H28.6667C28.2983 38.6846 28 38.983 28 39.3513V43.3513C28 43.7196 28.2983 44.018 28.6667 44.018H30.4287C30.5698 44.456 30.7458 44.8821 30.956 45.2913L29.71 46.5365C29.45 46.797 29.45 47.2188 29.71 47.4793L32.5387 50.308C32.7992 50.568 33.221 50.568 33.4815 50.308L34.7267 49.0626C35.1365 49.272 35.5623 49.448 36 49.5893V51.3513C36 51.7196 36.2983 52.018 36.6667 52.018H40.6667C41.035 52.018 41.3333 51.7196 41.3333 51.3513V49.5893C41.771 49.448 42.1968 49.272 42.6067 49.0626L43.8518 50.308C44.1123 50.568 44.5342 50.568 44.7947 50.308L47.6233 47.4793C47.8833 47.2188 47.8833 46.797 47.6233 46.5365L46.3773 45.2913C46.5875 44.8821 46.7635 44.456 46.9047 44.018H48.6667C49.035 44.018 49.3333 43.7196 49.3333 43.3513V39.3513ZM48 42.6846H46.404C46.1 42.6846 45.8347 42.8905 45.7587 43.1846C45.5883 43.8463 45.3258 44.4813 44.9787 45.07C44.8242 45.3316 44.8667 45.665 45.0813 45.88L46.2085 47.0078L44.3232 48.894L43.1953 47.766C42.9802 47.551 42.6468 47.5086 42.385 47.6633C41.7963 48.0105 41.1617 48.2731 40.5 48.4433C40.2058 48.5193 40 48.7846 40 49.0886V50.6846H37.3333V49.0886C37.3333 48.7846 37.1275 48.5193 36.8333 48.4433C36.1717 48.2731 35.537 48.0105 34.9483 47.6633C34.6865 47.5086 34.3532 47.551 34.138 47.766L33.0102 48.894L31.1248 47.0078L32.252 45.88C32.4667 45.665 32.5092 45.3316 32.3547 45.07C32.0075 44.4813 31.745 43.8463 31.5747 43.1846C31.4987 42.8905 31.2333 42.6846 30.9293 42.6846H29.3333V40.018H30.9293C31.2333 40.018 31.4987 39.8121 31.5747 39.518C31.6823 39.0983 31.8275 38.6896 32.0082 38.2961C32.1123 38.068 32.228 37.8455 32.3547 37.6295C32.5087 37.3676 32.4665 37.0348 32.252 36.82L31.1248 35.6921L33.0102 33.806L34.138 34.9343C34.3532 35.1493 34.6865 35.1913 34.9483 35.0365C35.537 34.6896 36.1717 34.4266 36.8333 34.2565C37.1275 34.1806 37.3333 33.915 37.3333 33.6115V32.018H40V33.614C40 33.918 40.2058 34.1833 40.5 34.2593C41.1617 34.4295 41.7963 34.6921 42.385 35.0393C42.6468 35.194 42.9802 35.1516 43.1953 34.9366L44.3232 33.8086L46.2085 35.6948L45.0813 36.8226C44.8667 37.0376 44.8242 37.371 44.9787 37.6326C45.3258 38.2213 45.5883 38.8563 45.7587 39.518C45.8347 39.8121 46.1 40.018 46.404 40.018H48V42.6846Z" fill="#FAB400"/>
<path d="M49.3333 50.6846H53.3333V52.018H49.3333V50.6846Z" fill="#FAB400"/>
</svg>