<svg width="72" height="73" viewBox="0 0 72 73" fill="none" xmlns="http://www.w3.org/2000/svg">
<rect y="0.00732422" width="72" height="72" rx="6" fill="#B5B3FF"/>
<g clip-path="url(#clip0_207_4999-392205)">
<path d="M19.794 18.8376C19.3031 18.8376 18.9092 19.2316 18.9092 19.7225C18.9092 20.2134 19.3031 20.6073 19.794 20.6073C20.2849 20.6073 20.6789 20.2134 20.6789 19.7225C20.6789 19.2316 20.2789 18.8376 19.794 18.8376Z" fill="#605BFF"/>
<path d="M22.9759 18.8376C22.485 18.8376 22.0911 19.2316 22.0911 19.7225C22.0911 20.2134 22.485 20.6073 22.9759 20.6073C23.4668 20.6073 23.8608 20.2134 23.8608 19.7225C23.8608 19.2316 23.4668 18.8376 22.9759 18.8376Z" fill="#605BFF"/>
<path d="M26.1576 18.8376C25.6666 18.8376 25.2727 19.2316 25.2727 19.7225C25.2727 20.2134 25.6666 20.6073 26.1576 20.6073C26.6485 20.6073 27.0424 20.2134 27.0424 19.7225C27.0424 19.2316 26.6485 18.8376 26.1576 18.8376Z" fill="#605BFF"/>
<path d="M40.1395 30.1225C33.0002 30.1225 27.1941 35.9286 27.1941 43.068C27.1941 44.6558 27.4789 46.2134 28.0486 47.6922C28.1153 47.868 28.285 47.9831 28.4668 47.9831H51.8062C51.9941 47.9831 52.1577 47.868 52.2244 47.6922C52.788 46.2134 53.0789 44.6558 53.0789 43.068C53.0789 35.9286 47.2729 30.1225 40.1395 30.1225ZM51.4911 47.074H28.782C28.6123 46.5892 28.4789 46.0922 28.3698 45.5892L29.2183 45.4376C29.4608 45.3952 29.6244 45.1589 29.582 44.9164C29.5395 44.674 29.3032 44.5104 29.0608 44.5528L28.2123 44.7043C28.1395 44.1649 28.0911 43.6195 28.0911 43.068C28.0911 42.5104 28.1395 41.9649 28.2183 41.4316L29.0668 41.5831C29.0911 41.5892 29.1214 41.5892 29.1456 41.5892C29.3577 41.5892 29.5517 41.4376 29.588 41.2195C29.6305 40.977 29.4668 40.7407 29.2244 40.6983L28.3698 40.5467C28.6062 39.4558 28.988 38.4195 29.4971 37.4558L30.2486 37.8922C30.3214 37.9346 30.4002 37.9528 30.4729 37.9528C30.6305 37.9528 30.782 37.874 30.8608 37.7286C30.988 37.5104 30.9092 37.2376 30.6971 37.1104L29.9517 36.6801C30.5395 35.7467 31.2547 34.9043 32.0668 34.1649L32.6183 34.8195C32.7092 34.9286 32.8365 34.9831 32.9638 34.9831C33.0668 34.9831 33.1698 34.9467 33.2547 34.8801C33.4426 34.7225 33.4729 34.4376 33.3092 34.2437L32.7577 33.5831C33.6183 32.9104 34.5759 32.3467 35.6002 31.9286L35.8971 32.7467C35.9638 32.9286 36.1395 33.0437 36.3214 33.0437C36.3698 33.0437 36.4244 33.0376 36.4729 33.0195C36.7092 32.9346 36.8244 32.674 36.7395 32.4437L36.4426 31.6255C37.4668 31.2922 38.5577 31.1043 39.685 31.0619V31.9286C39.685 32.177 39.885 32.377 40.1335 32.377C40.382 32.377 40.582 32.177 40.582 31.9286V31.0619C41.7092 31.1043 42.7941 31.2922 43.8244 31.6255L43.5274 32.4437C43.4426 32.6801 43.5638 32.9346 43.7941 33.0195C43.8426 33.0376 43.8971 33.0437 43.9456 33.0437C44.1274 33.0437 44.3032 32.9286 44.3699 32.7467L44.6668 31.9286C45.6911 32.3467 46.6486 32.9104 47.5092 33.5831L46.9577 34.2437C46.8002 34.4316 46.8244 34.7164 47.0123 34.8801C47.0971 34.9528 47.2002 34.9831 47.3032 34.9831C47.4305 34.9831 47.5577 34.9286 47.6486 34.8195L48.2002 34.1649C49.0123 34.9043 49.7274 35.7467 50.3153 36.6801L49.5759 37.0983C49.3577 37.2255 49.285 37.4983 49.4123 37.7164C49.4971 37.8619 49.6486 37.9407 49.8002 37.9407C49.8789 37.9407 49.9517 37.9225 50.0244 37.8801L50.7759 37.4437C51.285 38.4073 51.6668 39.4437 51.9032 40.5346L51.0486 40.6861C50.8062 40.7286 50.6426 40.9649 50.685 41.2073C50.7214 41.4255 50.9153 41.577 51.1274 41.577C51.1517 41.577 51.182 41.577 51.2062 41.571L52.0547 41.4195C52.1274 41.9589 52.182 42.4983 52.182 43.0558C52.182 43.6073 52.1335 44.1528 52.0608 44.6922L51.2123 44.5407C50.9698 44.4983 50.7335 44.6619 50.6911 44.9043C50.6486 45.1467 50.8123 45.3831 51.0547 45.4255L51.9032 45.577C51.7941 46.0922 51.6608 46.5892 51.4911 47.074Z" fill="#605BFF"/>
<path d="M45.7575 35.8377C45.5696 35.7286 45.3333 35.771 45.1939 35.9346L39.8787 42.0195C39.5454 42.2195 39.2605 42.4922 39.0605 42.8377C38.7515 43.3771 38.6666 44.0013 38.8302 44.6013C38.9878 45.2013 39.3757 45.6983 39.909 46.0074C40.2727 46.2195 40.6727 46.3164 41.0666 46.3164C41.8727 46.3164 42.6545 45.8983 43.0848 45.1528C43.2848 44.8074 43.3757 44.4195 43.3818 44.0316L45.9636 36.371C46.0302 36.171 45.9454 35.9467 45.7575 35.8377ZM42.303 44.7043C41.909 45.3831 41.0424 45.6195 40.3575 45.2316C40.0302 45.0437 39.7999 44.7407 39.6969 44.371C39.5999 44.0013 39.6484 43.6195 39.8363 43.2922C40.0242 42.9649 40.3272 42.7286 40.6969 42.6316C40.8181 42.6013 40.9454 42.5831 41.0666 42.5831C41.309 42.5831 41.5515 42.6498 41.7696 42.771C42.103 42.9589 42.3393 43.268 42.4363 43.6316C42.5393 43.9952 42.4909 44.371 42.303 44.7043ZM42.9151 42.5952C42.7272 42.3528 42.4969 42.1467 42.2242 41.9892C41.9515 41.8316 41.6605 41.7346 41.3575 41.6983L44.3878 38.2316L42.9151 42.5952Z" fill="#605BFF"/>
<path d="M42.6122 54.4861H29.3879C29.1395 54.4861 28.9395 54.6861 28.9395 54.9346C28.9395 55.1831 29.1395 55.3831 29.3879 55.3831H42.6122C42.8607 55.3831 43.0607 55.1831 43.0607 54.9346C43.0607 54.6861 42.8607 54.4861 42.6122 54.4861Z" fill="#605BFF"/>
<path d="M54.6303 49.6801H54.2546L54.6606 48.6195C55.3394 46.8437 55.6849 44.971 55.6849 43.068C55.6849 36.4377 51.5152 30.771 45.6606 28.5407V22.3831C45.6606 22.377 45.6606 22.371 45.6606 22.371V17.0801C45.6606 16.8316 45.4606 16.6316 45.2122 16.6316H16.7637C16.5152 16.6316 16.3152 16.8316 16.3152 17.0801V22.377V22.3831V41.5831C16.3152 41.8316 16.5152 42.0316 16.7637 42.0316H24.6243C24.6 42.377 24.5879 42.7164 24.5879 43.068C24.5879 44.977 24.9334 46.8437 25.6122 48.6255L26.0182 49.6861H24.5758C23.6667 49.6861 22.9212 50.4255 22.9212 51.3407C22.9212 52.2498 23.6606 52.9952 24.5758 52.9952H46.2122C46.2182 52.9952 46.2243 52.9892 46.2364 52.9892C46.3394 52.9831 46.4364 52.9407 46.5091 52.874C46.5152 52.868 46.5273 52.868 46.5334 52.8619C46.6182 52.7771 46.6667 52.6619 46.6667 52.5407C46.6667 52.4801 46.6546 52.4195 46.6303 52.3649C46.6243 52.3528 46.6122 52.3467 46.6061 52.3346C46.5879 52.2922 46.5637 52.2558 46.5334 52.2255C46.497 52.1892 46.4546 52.1589 46.4061 52.1407C46.3879 52.1346 46.3697 52.1286 46.3576 52.1225C46.3212 52.1104 46.2909 52.1043 46.2546 52.1043C46.2425 52.1043 46.2303 52.0983 46.2182 52.0983H24.5819C24.1697 52.0983 23.8303 51.7589 23.8303 51.3467C23.8303 50.9346 24.1697 50.5952 24.5819 50.5952H26.6728H26.6788H53.6H53.6061H54.6364C54.8849 50.5952 55.0849 50.3952 55.0849 50.1467C55.0849 49.8983 54.8788 49.6801 54.6303 49.6801ZM17.2182 17.5286H44.7637V21.9225H17.2182V17.5286ZM17.2182 41.1286V22.8255H44.7576V28.2195C44.0728 28.0073 43.3697 27.8437 42.6546 27.7225V25.377C42.6546 25.1286 42.4546 24.9286 42.2061 24.9286H19.7697C19.5212 24.9286 19.3212 25.1286 19.3212 25.377V38.571C19.3212 38.8195 19.5212 39.0195 19.7697 39.0195H25.1212C24.9394 39.7043 24.8 40.4074 24.7091 41.1225H17.2182V41.1286ZM25.4 38.1225H20.2243V25.8316H41.7516V27.6013C41.2182 27.5467 40.6788 27.5164 40.1334 27.5164C33.2909 27.5164 27.4667 31.9649 25.4 38.1225ZM26.4546 48.2922C25.8122 46.6195 25.4909 44.8558 25.4909 43.0619C25.4909 34.9892 32.0606 28.4195 40.1394 28.4195C48.2182 28.4195 54.7879 34.9892 54.7879 43.0619C54.7879 44.8619 54.4606 46.6195 53.8243 48.2922L53.297 49.674H26.994L26.4546 48.2922Z" fill="#605BFF"/>
<path d="M20.9757 49.6801H17.3696C17.1211 49.6801 16.9211 49.8801 16.9211 50.1286C16.9211 50.3771 17.1211 50.5771 17.3696 50.5771H20.9757C21.2242 50.5771 21.4242 50.3771 21.4242 50.1286C21.4242 49.8801 21.2242 49.6801 20.9757 49.6801Z" fill="#605BFF"/>
<path d="M48.9394 52.2134C48.7697 52.0437 48.4666 52.0437 48.303 52.2134C48.2606 52.2558 48.2242 52.3043 48.206 52.3589C48.1818 52.4134 48.1697 52.474 48.1697 52.5346C48.1697 52.6558 48.2182 52.771 48.303 52.8558C48.3454 52.8983 48.3939 52.9286 48.4485 52.9528C48.503 52.9771 48.5636 52.9892 48.6242 52.9892C48.6848 52.9892 48.7394 52.9771 48.7939 52.9528C48.8545 52.9286 48.903 52.8983 48.9454 52.8558C49.0303 52.771 49.0788 52.6558 49.0788 52.5346C49.0788 52.474 49.0666 52.4134 49.0424 52.3589C49.0121 52.3043 48.9818 52.2558 48.9394 52.2134Z" fill="#605BFF"/>
</g>
<defs>
<clipPath id="clip0_207_4999-392205">
<rect width="40" height="40" fill="white" transform="translate(16 16.0073)"/>
</clipPath>
</defs>
</svg>