<svg width="72" height="73" viewBox="0 0 72 73" fill="none" xmlns="http://www.w3.org/2000/svg">
<rect y="0.00732422" width="72" height="72" rx="6" fill="#BCEBF6"/>
<path d="M52.3873 17.7342C52.2496 17.6493 52.091 17.6041 51.9294 17.6041H25.8197C23.5749 17.6041 21.7488 19.4124 21.7488 21.6287L21.5953 44.1131H16.8768C16.3925 44.1131 16 44.5056 16 44.9899V49.0406C16.0031 52.0151 18.4136 54.4256 21.3881 54.429C21.4484 54.429 21.509 54.4229 21.5683 54.4106H43.3526C43.4824 54.4198 43.6133 54.426 43.7451 54.426C46.7659 54.4205 49.212 51.971 49.213 48.9502V35.8066H55.1231C55.6074 35.8066 55.9999 35.4141 55.9999 34.9298V21.9144C55.9893 19.8214 54.4566 18.0476 52.3873 17.7342ZM17.7536 49.0409V45.867H38.2772V48.9505C38.2762 50.3243 38.793 51.6477 39.7249 52.657H21.2682C21.2268 52.6573 21.1857 52.6604 21.1449 52.6666C19.2376 52.5368 17.756 50.9527 17.7536 49.0409ZM47.4595 21.9144V48.9502C47.4578 49.9304 47.0683 50.8695 46.3762 51.5631C45.7134 52.2429 44.813 52.6399 43.8643 52.67C43.817 52.6618 43.7691 52.6577 43.7208 52.6573H43.4126C41.5028 52.4693 40.0434 50.8698 40.0308 48.9509V44.9899C40.0308 44.506 39.6383 44.1131 39.154 44.1131H23.3489L23.5023 21.6349C23.515 20.367 24.5514 19.348 25.8197 19.3576H48.3304C47.7657 20.0902 47.4591 20.9893 47.4595 21.9144ZM54.2463 34.053H49.213V21.9144C49.236 20.5406 50.3559 19.4395 51.7297 19.4395C53.1034 19.4395 54.2234 20.5406 54.2463 21.9144V34.053Z" fill="#26C0E2"/>
<path d="M27.2567 27.1028H35.5608C36.0451 27.1028 36.4376 26.7103 36.4376 26.226C36.4376 25.7417 36.0451 25.3492 35.5608 25.3492H27.2567C26.7724 25.3492 26.3799 25.7417 26.3799 26.226C26.3799 26.7103 26.7724 27.1028 27.2567 27.1028Z" fill="#26C0E2"/>
<path d="M42.747 31.6183H27.2567C26.7724 31.6183 26.3799 32.0108 26.3799 32.4951C26.3799 32.979 26.7724 33.3719 27.2567 33.3719H42.747C43.2313 33.3719 43.6238 32.979 43.6238 32.4951C43.6238 32.0108 43.2313 31.6183 42.747 31.6183Z" fill="#26C0E2"/>
<path d="M42.747 37.887H27.2567C26.7724 37.887 26.3799 38.2798 26.3799 38.7637C26.3799 39.248 26.7724 39.6405 27.2567 39.6405H42.747C43.2313 39.6405 43.6238 39.248 43.6238 38.7637C43.6238 38.2798 43.2313 37.887 42.747 37.887Z" fill="#26C0E2"/>
</svg>