<svg width="72" height="73" viewBox="0 0 72 73" fill="none" xmlns="http://www.w3.org/2000/svg">
<rect y="0.00732422" width="72" height="72" rx="6" fill="#B3CDFF"/>
<path fill-rule="evenodd" clip-rule="evenodd" d="M20.0938 43.4873H39.0688C39.585 43.4873 40.0063 43.0673 40.0063 42.5498C40.0063 42.0323 39.585 41.6123 39.0688 41.6123H20.0938C19.5762 41.6123 19.1562 42.0323 19.1562 42.5498C19.1562 43.0673 19.5762 43.4873 20.0938 43.4873Z" fill="#5B93FF"/>
<path fill-rule="evenodd" clip-rule="evenodd" d="M46.0675 36.7973C41.415 36.7973 37.6362 40.5761 37.6362 45.2298C37.6362 49.8823 41.415 53.6611 46.0675 53.6611C50.7212 53.6611 54.5 49.8823 54.5 45.2298C54.5 40.5761 50.7212 36.7973 46.0675 36.7973ZM46.0675 38.6723C49.6862 38.6723 52.625 41.6111 52.625 45.2298C52.625 48.8473 49.6862 51.7861 46.0675 51.7861C42.45 51.7861 39.5112 48.8473 39.5112 45.2298C39.5112 41.6111 42.45 38.6723 46.0675 38.6723Z" fill="#5B93FF"/>
<path fill-rule="evenodd" clip-rule="evenodd" d="M49.5062 44.2923H42.6362C42.1187 44.2923 41.6987 44.7123 41.6987 45.2298C41.6987 45.7461 42.1187 46.1673 42.6362 46.1673H49.5062C50.0237 46.1673 50.4437 45.7461 50.4437 45.2298C50.4437 44.7123 50.0237 44.2923 49.5062 44.2923Z" fill="#5B93FF"/>
<path fill-rule="evenodd" clip-rule="evenodd" d="M45.1338 41.7948V48.6636C45.1338 49.1811 45.5538 49.6011 46.0713 49.6011C46.5888 49.6011 47.0088 49.1811 47.0088 48.6636V41.7948C47.0088 41.2773 46.5888 40.8573 46.0713 40.8573C45.5538 40.8573 45.1338 41.2773 45.1338 41.7948Z" fill="#5B93FF"/>
<path fill-rule="evenodd" clip-rule="evenodd" d="M33.0037 24.8136C33.0037 24.2961 32.5837 23.8761 32.0662 23.8761H20.0938C19.5762 23.8761 19.1562 24.2961 19.1562 24.8136V47.2598C19.1562 49.4311 20.9162 51.1911 23.0875 51.1911H40.51C40.88 51.1911 41.2162 50.9723 41.3662 50.6336C41.5162 50.2948 41.4538 49.8998 41.205 49.6248C40.1525 48.4611 39.5112 46.9198 39.5112 45.2298C39.5112 41.6111 42.45 38.6723 46.0675 38.6723C47.7588 38.6723 49.3 39.3136 50.4637 40.3661C50.7375 40.6148 51.1338 40.6773 51.4725 40.5273C51.8113 40.3773 52.03 40.0411 52.03 39.6711V24.8136C52.03 24.2961 51.61 23.8761 51.0925 23.8761H39.12C38.6025 23.8761 38.1825 24.2961 38.1825 24.8136V27.4698C38.1825 27.9911 37.76 28.4136 37.2388 28.4136H33.9475C33.4263 28.4136 33.0037 27.9911 33.0037 27.4698V24.8136ZM31.1287 25.7511V27.4698C31.1287 29.0261 32.39 30.2886 33.9475 30.2886H37.2388C38.795 30.2886 40.0575 29.0261 40.0575 27.4698V25.7511H50.155V37.8536C48.9438 37.1811 47.55 36.7973 46.0675 36.7973C41.415 36.7973 37.6362 40.5761 37.6362 45.2298C37.6362 46.7111 38.02 48.1048 38.6925 49.3148C38.6925 49.3161 23.0875 49.3161 23.0875 49.3161C21.9525 49.3161 21.0312 48.3948 21.0312 47.2598V25.7511H31.1287Z" fill="#5B93FF"/>
<path fill-rule="evenodd" clip-rule="evenodd" d="M39.12 18.0836C38.6025 18.0836 38.1825 18.5036 38.1825 19.0211V24.8136C38.1825 25.3311 38.6025 25.7511 39.12 25.7511H50.5025C52.26 25.7511 53.685 24.3261 53.685 22.5686V21.2661C53.685 19.5086 52.26 18.0836 50.5025 18.0836H39.12ZM33.0037 19.0211C33.0037 18.5036 32.5837 18.0836 32.0662 18.0836H20.6837C18.925 18.0836 17.5 19.5086 17.5 21.2661V22.5686C17.5 24.3261 18.925 25.7511 20.6837 25.7511H32.0662C32.5837 25.7511 33.0037 25.3311 33.0037 24.8136V19.0211ZM40.0575 19.9586H50.5025C51.225 19.9586 51.81 20.5436 51.81 21.2661V22.5686C51.81 23.2911 51.225 23.8761 50.5025 23.8761H40.0575V19.9586ZM31.1287 19.9586V23.8761H20.6837C19.9612 23.8761 19.375 23.2911 19.375 22.5686V21.2661C19.375 20.5436 19.9612 19.9586 20.6837 19.9586H31.1287Z" fill="#5B93FF"/>
<path fill-rule="evenodd" clip-rule="evenodd" d="M32.0662 18.0836C31.5474 18.0836 31.1287 18.5036 31.1287 19.0211V27.4761C31.1287 28.2223 31.4249 28.9373 31.9524 29.4648C32.4799 29.9923 33.1949 30.2886 33.9412 30.2886H37.2449C37.9912 30.2886 38.7062 29.9923 39.2337 29.4648C39.7612 28.9373 40.0574 28.2223 40.0574 27.4761C40.0574 24.4986 40.0574 19.0211 40.0574 19.0211C40.0574 18.5036 39.6374 18.0836 39.1199 18.0836H32.0662ZM33.0037 19.9586H38.1824V27.4761C38.1824 27.7248 38.0837 27.9636 37.9074 28.1386C37.7324 28.3148 37.4937 28.4136 37.2449 28.4136H33.9412C33.6924 28.4136 33.4537 28.3148 33.2774 28.1386C33.1024 27.9636 33.0037 27.7248 33.0037 27.4761V19.9586Z" fill="#5B93FF"/>
</svg>