<svg width="72" height="73" viewBox="0 0 72 73" fill="none" xmlns="http://www.w3.org/2000/svg">
<rect y="0.00732422" width="72" height="72" rx="6" fill="#FFC5B3"/>
<g clip-path="url(#clip0_207_5018-510258)">
<path d="M54.8714 29.2511C54.0025 28.8014 52.693 28.9424 51.8712 30.3148C51.8689 30.3187 51.8665 30.3226 51.8643 30.3266L48.8284 35.6032C47.9515 35.152 46.8455 35.3744 46.2165 36.1817C45.9992 36.4608 45.2812 37.4164 44.5212 38.4283C44.1046 38.9829 43.6881 39.5374 43.3665 39.9637C43.1067 40.3081 43.1752 40.7979 43.5196 41.0576C43.8642 41.3176 44.3538 41.2489 44.6136 40.9046C44.9358 40.4775 45.353 39.9221 45.7704 39.3666C46.4929 38.4047 47.24 37.41 47.4489 37.1419C47.6272 36.913 47.9694 36.8687 48.1963 37.0453C48.3649 37.1763 48.3559 37.4971 48.1696 37.9988C47.5066 39.7845 46.6828 41.569 45.9093 42.8946C45.6919 43.2672 45.8177 43.7455 46.1904 43.9629C46.5631 44.1803 47.0414 44.0544 47.2587 43.6819C48.0754 42.282 48.9412 40.4088 49.6342 38.5426C49.8745 37.8951 49.9182 37.3768 49.8481 36.9636L53.2147 31.1121C53.4869 30.6609 53.8462 30.4794 54.1535 30.6385C54.3646 30.7477 54.5434 31.0284 54.3541 31.4603C54.1262 31.9638 53.6356 33.2099 53.0149 34.7864C52.1933 36.8729 51.1711 39.4698 50.307 41.4905C49.2545 43.9522 48.8492 44.5468 46.9703 46.3844L43.9761 49.3131C43.7785 49.5064 43.6977 49.7899 43.7638 50.0583L44.8069 54.2934C44.8082 54.2985 44.8095 54.3037 44.8109 54.3088C44.828 54.3727 44.7914 54.4264 44.7724 54.4415H38.6669C38.087 54.4415 37.9624 54.2762 37.8328 53.9251C36.3004 49.775 37.881 47.393 39.4292 45.7815C39.7281 45.4704 39.7181 44.9759 39.407 44.6771C39.0959 44.3782 38.6015 44.3881 38.3025 44.6992C37.1617 45.8868 36.4069 47.0994 36.0012 48.397C35.8348 47.868 35.6106 47.3524 35.3277 46.8488C34.2659 44.9584 32.5401 43.5734 31.1533 42.4605C30.3469 41.8134 29.5852 41.2022 29.1561 40.6513C28.9474 40.3834 28.2009 39.3895 27.4789 38.4284C26.7189 37.4165 26.001 36.4608 25.7836 36.1818C25.1546 35.3745 24.0487 35.152 23.1716 35.6033L20.1357 30.3266C20.1335 30.3226 20.1311 30.3187 20.1288 30.3148C19.307 28.9424 17.9974 28.8014 17.1285 29.2511C16.2526 29.7044 15.6586 30.8266 16.218 32.0941C16.2191 32.0966 16.2202 32.099 16.2213 32.1014C16.3718 32.4332 16.6744 33.19 16.9212 33.8122C17.0803 34.2132 17.5346 34.4093 17.9353 34.2502C18.3364 34.0911 18.5325 33.6371 18.3734 33.2361C17.9939 32.2795 17.7761 31.7477 17.6459 31.4603C17.4568 31.0285 17.6356 30.7477 17.8466 30.6385C18.1541 30.4795 18.5134 30.661 18.7855 31.1122L22.1521 36.9637C22.0819 37.3769 22.1256 37.8952 22.366 38.5426C23.0589 40.4088 23.9247 42.282 24.7414 43.6819C24.9589 44.0544 25.4372 44.1803 25.8098 43.9629C26.1823 43.7455 26.3082 43.2672 26.0908 42.8946C25.3173 41.5689 24.4934 39.7844 23.8304 37.9988C23.6441 37.4971 23.6352 37.1763 23.8039 37.0452C24.0306 36.869 24.373 36.9131 24.5512 37.1419C24.76 37.41 25.5072 38.4047 26.2298 39.3666C26.9892 40.3776 27.7065 41.3325 27.9237 41.6113C28.465 42.3062 29.2958 42.973 30.1755 43.6789C32.9868 45.9349 36.1732 48.492 34.1672 53.9251C34.0375 54.2761 33.913 54.4414 33.3331 54.4414H27.2276C27.2086 54.4264 27.172 54.3726 27.1891 54.3087C27.1905 54.3037 27.1918 54.2985 27.1931 54.2933L28.2362 50.0583C28.3023 49.7898 28.2216 49.5064 28.0239 49.313L25.0297 46.3843C23.1509 44.5467 22.7455 43.9521 21.6929 41.4903C21.4766 40.9846 21.2336 40.4027 20.9704 39.7608C20.8068 39.3616 20.3505 39.1706 19.9514 39.3344C19.5522 39.498 19.3613 39.9543 19.525 40.3534C19.7948 41.0116 20.0342 41.5844 20.2565 42.1044C21.3916 44.7593 21.9076 45.5159 23.9374 47.5011L26.6126 50.1178L25.6777 53.9131C25.5459 54.4165 25.6563 54.9631 25.974 55.3772C26.2794 55.7753 26.7325 56.0036 27.2169 56.0036H33.333C34.4984 56.0036 35.2506 55.5007 35.6326 54.466C35.7771 54.0747 35.8993 53.6907 36.0007 53.3132C36.1014 53.6923 36.2235 54.0767 36.3673 54.466C36.7492 55.5007 37.5015 56.0036 38.6668 56.0036H44.7829C45.2674 56.0036 45.7204 55.7753 46.0259 55.3772C46.3435 54.9632 46.454 54.4168 46.3222 53.9134L45.3873 50.1179L48.0625 47.5012C50.0922 45.5159 50.6083 44.7593 51.7434 42.1045C52.6162 40.0631 53.6432 37.4546 54.4684 35.3585C55.0584 33.86 55.5679 32.5658 55.7786 32.1012C55.7797 32.0987 55.7807 32.0963 55.7818 32.0939C56.3414 30.8266 55.7474 29.7044 54.8714 29.2511Z" fill="#FF6635"/>
<path d="M19.7192 36.7947C19.7192 36.3633 19.3695 36.0136 18.9381 36.0136H18.9375C18.5061 36.0136 18.1567 36.3633 18.1567 36.7947C18.1567 37.2261 18.5067 37.5758 18.9381 37.5758C19.3695 37.5758 19.7192 37.226 19.7192 36.7947Z" fill="#FF6635"/>
<path d="M41.5125 42.1466C41.0812 42.1466 40.7317 42.4963 40.7317 42.9277C40.7317 43.3591 41.0816 43.7088 41.513 43.7088C41.9444 43.7088 42.2941 43.3591 42.2941 42.9277C42.2941 42.4963 41.9444 42.1466 41.513 42.1466H41.5125Z" fill="#FF6635"/>
<path d="M23.5025 28.9548H30.6248C30.5642 29.2819 30.5323 29.6177 30.5323 29.9593V31.2983C30.5323 31.7297 30.882 32.0794 31.3134 32.0794H40.6867C41.118 32.0794 41.4678 31.7297 41.4678 31.2983V29.9593C41.4678 29.6178 41.4359 29.282 41.3753 28.9548H48.4978C48.9291 28.9548 49.2789 28.6051 49.2789 28.1737V26.8347C49.2789 25.0145 48.3892 23.3517 46.9137 22.3366C47.1416 21.8756 47.2703 21.3572 47.2703 20.8091V19.4701C47.2703 17.5627 45.7185 16.0109 43.8111 16.0109C41.9037 16.0109 40.3519 17.5627 40.3519 19.4701V20.8092C40.3519 21.3581 40.4811 21.8773 40.7096 22.3389C40.2291 22.6723 39.8079 23.0783 39.4593 23.5377V22.5946C39.4593 20.6872 37.9075 19.1354 36.0001 19.1354C34.0926 19.1354 32.5409 20.6872 32.5409 22.5946V23.5379C32.1923 23.0784 31.771 22.6723 31.2905 22.3389C31.519 21.8773 31.6481 21.3582 31.6481 20.8092V19.4701C31.6481 17.5627 30.0964 16.0109 28.1889 16.0109C26.2815 16.0109 24.7297 17.5627 24.7297 19.4701V20.8092C24.7297 21.3573 24.8585 21.8757 25.0863 22.3367C23.6107 23.3516 22.7212 25.0139 22.7212 26.8348V28.1738C22.7213 28.6051 23.071 28.9548 23.5025 28.9548ZM39.9056 30.5172H32.0945V29.9593C32.0945 28.6378 32.7893 27.3915 33.8948 26.6758C34.4785 27.1249 35.2084 27.3928 36.0001 27.3928C36.7922 27.3928 37.5225 27.1246 38.1063 26.675C38.275 26.7832 38.4334 26.9031 38.5813 27.033C38.6058 27.0578 38.6315 27.0813 38.659 27.1027C39.0621 27.4759 39.3791 27.9269 39.5927 28.4265C39.6033 28.4575 39.6159 28.4875 39.6302 28.5167C39.8094 28.9671 39.9055 29.4547 39.9055 29.9592V30.5172H39.9056ZM47.7167 26.8348V27.3927H40.8299C40.5974 26.9561 40.3056 26.552 39.9613 26.1919C40.1437 25.113 40.7819 24.1493 41.707 23.5521C42.2904 24.0007 43.02 24.2683 43.8111 24.2683C44.6033 24.2683 45.3335 24.0001 45.9173 23.5505C47.0369 24.2684 47.7167 25.4919 47.7167 26.8348ZM41.9141 19.4701C41.9141 18.4241 42.7651 17.5731 43.8111 17.5731C44.857 17.5731 45.708 18.4241 45.708 19.4701V20.8092C45.708 21.8552 44.857 22.7062 43.8111 22.7062C42.765 22.7062 41.9141 21.8552 41.9141 20.8092V19.4701ZM34.1031 22.5946C34.1031 21.5487 34.9541 20.6976 36.0001 20.6976C37.0461 20.6976 37.8971 21.5487 37.8971 22.5946V23.9337C37.8971 24.9797 37.0461 25.8307 36.0001 25.8307C34.9541 25.8307 34.1031 24.9797 34.1031 23.9337V22.5946ZM26.2921 19.4701C26.2921 18.4241 27.1431 17.5731 28.1891 17.5731C29.2351 17.5731 30.0861 18.4241 30.0861 19.4701V20.8092C30.0861 21.8552 29.2351 22.7062 28.1891 22.7062C27.1431 22.7062 26.2921 21.8552 26.2921 20.8092V19.4701ZM24.2836 26.8348C24.2836 25.4914 24.9633 24.2683 26.0829 23.5505C26.6667 24.0002 27.397 24.2684 28.1891 24.2684C28.9803 24.2684 29.7098 24.0008 30.2932 23.5522C31.2181 24.1493 31.8564 25.1131 32.0389 26.1916C31.6945 26.5519 31.4026 26.956 31.17 27.3927H24.2836V26.8348H24.2836Z" fill="#FF6635"/>
</g>
<defs>
<clipPath id="clip0_207_5018-510258">
<rect width="40" height="40" fill="white" transform="translate(16 16.0073)"/>
</clipPath>
</defs>
</svg>