<svg width="72" height="73" viewBox="0 0 72 73" fill="none" xmlns="http://www.w3.org/2000/svg">
<rect y="0.00732422" width="72" height="72" rx="6" fill="#B3CDFF"/>
<g clip-path="url(#clip0_207_4959-445341)">
<path d="M54.8278 56.0073H17.1719C16.5247 56.0073 16 55.4826 16 54.8354C16 54.1883 16.5247 53.6636 17.1719 53.6636H54.8278C55.475 53.6636 55.9997 54.1883 55.9997 54.8354C55.9997 55.4826 55.475 56.0073 54.8278 56.0073Z" fill="#5B93FF"/>
<path d="M24.2812 56.0074H19.5937C18.9466 56.0074 18.4219 55.4827 18.4219 54.8355V46.2418C18.4219 45.1649 19.298 44.2887 20.375 44.2887H23.5C24.5769 44.2887 25.4531 45.1649 25.4531 46.2418V54.8355C25.4531 55.4827 24.9284 56.0074 24.2812 56.0074ZM20.7656 53.6636H23.1093V46.6324H20.7656V53.6636ZM23.5 46.6324H23.5007H23.5Z" fill="#5B93FF"/>
<path d="M33.6562 56.0073H28.9687C28.3216 56.0073 27.7969 55.4826 27.7969 54.8355V43.4293C27.7969 42.3524 28.673 41.4762 29.75 41.4762H32.875C33.9519 41.4762 34.8281 42.3524 34.8281 43.4293V54.8355C34.8281 55.4826 34.3034 56.0073 33.6562 56.0073ZM30.1406 53.6636H32.4843V43.8199H30.1406V53.6636ZM32.875 43.8199H32.8757H32.875Z" fill="#5B93FF"/>
<path d="M43.031 56.0073H38.3435C37.6963 56.0073 37.1716 55.4826 37.1716 54.8354V39.1324C37.1716 38.0555 38.0478 37.1793 39.1247 37.1793H42.2497C43.3267 37.1793 44.2028 38.0555 44.2028 39.1324V54.8354C44.2028 55.4826 43.6781 56.0073 43.031 56.0073ZM39.5154 53.6636H41.8591V39.5231H39.5154V53.6636ZM42.2497 39.5231H42.2505H42.2497Z" fill="#5B93FF"/>
<path d="M52.406 56.0074H47.7185C47.0713 56.0074 46.5466 55.4827 46.5466 54.8355V31.3201C46.5466 30.2431 47.4228 29.3669 48.4997 29.3669H51.6247C52.7017 29.3669 53.5778 30.2431 53.5778 31.3201V54.8355C53.5778 55.4827 53.0531 56.0074 52.406 56.0074ZM48.8904 53.6636H51.2341V31.7107H48.8904V53.6636ZM51.6247 31.7107H51.6255H51.6247Z" fill="#5B93FF"/>
<path d="M17.1719 41.1874C16.5247 41.1874 16 40.6627 16 40.0156C16 39.3684 16.5247 38.8437 17.1719 38.8437C24.0629 38.8437 31.5658 36.3343 38.2983 31.7779C44.4921 27.5861 49.4276 22.0908 51.8391 16.7011C52.1035 16.1103 52.7967 15.8457 53.3874 16.1101C53.9781 16.3744 54.2427 17.0676 53.9784 17.6584C51.3936 23.4354 46.1572 29.2893 39.612 33.7189C32.4957 38.535 24.5263 41.1874 17.1719 41.1874Z" fill="#5B93FF"/>
<path d="M54.8272 25.5134C54.3097 25.5134 53.8363 25.1681 53.696 24.6445L52.0804 18.6148L46.0506 20.2305C45.4253 20.3981 44.7829 20.027 44.6154 19.4019C44.4479 18.7767 44.8189 18.1342 45.444 17.9667L52.6057 16.0477C53.2311 15.8801 53.8734 16.2512 54.0409 16.8763L55.9599 24.0379C56.1274 24.6631 55.7564 25.3057 55.1313 25.4732C55.0296 25.5003 54.9276 25.5134 54.8272 25.5134Z" fill="#5B93FF"/>
</g>
<defs>
<clipPath id="clip0_207_4959-445341">
<rect width="40" height="40" fill="white" transform="translate(16 16.0073)"/>
</clipPath>
</defs>
</svg>