<svg width="84" height="29" viewBox="0 0 84 29" fill="none" xmlns="http://www.w3.org/2000/svg">
<path fill-rule="evenodd" clip-rule="evenodd" d="M21.2532 1.26007C23.3097 1.26007 24.977 2.92684 24.977 4.98355C24.977 7.04053 23.3097 8.7073 21.2532 8.7073H4.22388C2.16717 8.7073 0.5 7.04053 0.5 4.98355C0.5 2.92684 2.16717 1.26007 4.22375 1.26007H21.2532ZM19.5415 11.0174C21.5984 11.0174 23.2655 12.6845 23.2655 14.7412C23.2655 16.7979 21.5984 18.4649 19.5415 18.4649H9.84906C9.02238 18.4679 8.34575 19.1219 8.3141 19.9402V24.7936C8.3141 26.85 6.64693 28.517 4.59076 28.517C2.53405 28.517 0.866877 26.85 0.866877 24.7936V16.534C0.866877 13.4874 3.33659 11.0173 6.38331 11.0173L19.5415 11.0174ZM26.668 4.19884C26.668 2.1424 28.3352 0.475098 30.3918 0.475098C32.4486 0.475098 34.1155 2.1424 34.1155 4.19884V24.8196C34.1155 26.8763 32.4487 28.5433 30.3918 28.5433C28.3353 28.5433 26.668 26.8762 26.668 24.8196V4.19884ZM72.4991 21.1575L73.9955 21.1538C74.3013 21.1535 74.5491 20.9056 74.5493 20.5998C74.5516 20.5271 74.5383 20.4547 74.5102 20.3876L68.9459 11.0373L60.2532 26.089C59.5817 27.253 58.3759 27.9167 57.1245 27.9501C57.0872 27.9553 57.0496 27.958 57.0119 27.958H42.8652C39.8183 27.958 37.3485 25.488 37.3485 22.4414V4.19911C37.3485 2.14254 39.0158 0.475232 41.0722 0.475232C43.1285 0.475232 44.796 2.14254 44.796 4.19898V18.9752C44.7986 19.8022 45.4525 20.4793 46.2714 20.5101H54.185C54.3885 20.4475 55.011 20.2359 55.2006 19.9413L65.1405 2.73456C65.8947 1.43949 67.2977 0.567621 68.9036 0.567621C70.5103 0.567621 71.9136 1.44083 72.6645 2.73858L82.3503 19.0002C83.0975 19.9717 83.5018 21.1634 83.5 22.389C83.5 25.4647 81.0067 27.9577 77.9315 27.9577H66.6414C64.7627 27.9577 63.2412 26.4353 63.2412 24.5572C63.2412 22.6797 64.7629 21.1575 66.6414 21.1575H72.4991Z" fill="#A5C4FF"/>
</svg>