<svg width="35" height="33" viewBox="0 0 35 33" fill="none" xmlns="http://www.w3.org/2000/svg">
<path d="M17.5 0.541664C13.0499 0.496444 8.76395 2.21993 5.58403 5.33336C2.40412 8.44678 0.590466 12.6954 0.541656 17.1454C0.558803 20.6622 1.69011 24.0831 3.77309 26.9167C5.85606 29.7503 8.78352 31.8509 12.135 32.9167C12.9829 33.0708 13.2912 32.5621 13.2912 32.115C13.2912 31.6679 13.2912 30.6812 13.2912 29.2937C8.57374 30.2958 7.57166 27.0737 7.57166 27.0737C7.25761 26.0623 6.58997 25.1976 5.69082 24.6379C4.14916 23.6204 5.81416 23.6358 5.81416 23.6358C6.34704 23.7071 6.85687 23.898 7.30542 24.1944C7.75398 24.4908 8.12961 24.8848 8.40416 25.3471C8.88258 26.1767 9.6676 26.7853 10.5903 27.0419C11.5129 27.2985 12.4994 27.1826 13.3375 26.7192C13.4237 25.8749 13.806 25.0885 14.4167 24.4992C10.655 24.0829 6.70832 22.6646 6.70832 16.2975C6.67468 14.6366 7.28836 13.0278 8.41957 11.8112C7.90439 10.3853 7.96522 8.81473 8.58916 7.43291C8.58916 7.43291 10.0229 6.98583 13.2142 9.12875C15.9921 8.3885 18.9154 8.3885 21.6933 9.12875C24.9308 6.98583 26.3183 7.43291 26.3183 7.43291C26.9423 8.81473 27.0031 10.3853 26.4879 11.8112C27.6454 13.0055 28.2923 14.6035 28.2917 16.2667C28.2917 22.6492 24.3142 24.0521 20.5833 24.4683C20.9918 24.865 21.3074 25.3472 21.5073 25.8803C21.7072 26.4134 21.7866 26.9842 21.7396 27.5517V32.0996C21.7396 32.0996 22.0479 33.0708 22.8958 32.9012C26.2378 31.8289 29.1554 29.7278 31.2319 26.8982C33.3084 24.0686 34.4377 20.6552 34.4583 17.1454C34.4095 12.6954 32.5959 8.44678 29.4159 5.33336C26.236 2.21993 21.9501 0.496444 17.5 0.541664" fill="#231F20"/>
</svg>