<svg width="166" height="42" viewBox="0 0 166 42" fill="none" xmlns="http://www.w3.org/2000/svg">
<path d="M24.1538 41.7141H20.7142C9.29259 41.7141 0 32.4215 0 20.9999C0 9.57774 9.29259 0.285645 20.7142 0.285645C26.2469 0.285645 31.449 2.44026 35.3617 6.35295L30.4972 11.2169C27.8846 8.60386 24.4098 7.16467 20.7147 7.16467C13.0859 7.16467 6.87952 13.371 6.87952 20.9999C6.87952 27.4416 11.3052 32.8691 17.2752 34.4022V21.7123H24.1542V41.7141H24.1538Z" fill="#5B93FF"/>
<path d="M37.3847 16.8197C39.3815 16.8197 41.0001 15.201 41.0001 13.2043C41.0001 11.2075 39.3815 9.58887 37.3847 9.58887C35.388 9.58887 33.7693 11.2075 33.7693 13.2043C33.7693 15.201 35.388 16.8197 37.3847 16.8197Z" fill="#FAB400"/>
<path d="M67.04 28.056C66.368 28.92 65.624 29.544 64.808 29.88C63.992 30.216 63.152 30.384 62.336 30.384C61.016 30.384 59.84 30.168 58.784 29.712C57.728 29.256 56.864 28.632 56.144 27.816C55.424 27.024 54.872 26.088 54.488 25.008C54.104 23.928 53.912 22.752 53.912 21.504C53.912 20.232 54.104 19.056 54.488 17.952C54.872 16.848 55.424 15.888 56.144 15.072C56.864 14.28 57.728 13.632 58.784 13.152C59.84 12.696 61.016 12.48 62.336 12.456C63.2 12.456 64.064 12.6 64.88 12.864C65.696 13.128 66.44 13.512 67.112 14.016C67.784 14.544 68.336 15.168 68.768 15.912C69.2 16.68 69.464 17.544 69.56 18.504H65.96C65.72 17.544 65.288 16.824 64.664 16.344C64.016 15.864 63.248 15.624 62.336 15.624C61.472 15.624 60.752 15.792 60.176 16.128C59.576 16.464 59.096 16.896 58.736 17.448C58.352 18 58.088 18.624 57.92 19.32C57.752 20.04 57.68 20.76 57.68 21.504C57.68 22.224 57.752 22.944 57.92 23.616C58.088 24.288 58.352 24.912 58.736 25.44C59.096 25.992 59.576 26.424 60.176 26.76C60.752 27.096 61.472 27.24 62.336 27.24C63.584 27.24 64.544 26.928 65.216 26.304C65.888 25.68 66.296 24.744 66.416 23.544H62.624V20.736H69.824V30H67.424L67.04 28.056ZM75.5309 23.808C75.5309 24.312 75.5789 24.792 75.6749 25.272C75.7709 25.752 75.9149 26.16 76.1549 26.544C76.3949 26.928 76.7069 27.216 77.0909 27.432C77.4749 27.672 77.9549 27.768 78.5309 27.768C79.1069 27.768 79.5869 27.672 79.9709 27.432C80.3549 27.216 80.6669 26.928 80.9069 26.544C81.1469 26.16 81.2909 25.752 81.4109 25.272C81.5069 24.792 81.5549 24.312 81.5549 23.808C81.5549 23.328 81.5069 22.824 81.4109 22.344C81.3149 21.864 81.1469 21.456 80.9069 21.072C80.6669 20.712 80.3549 20.424 79.9709 20.184C79.5869 19.944 79.1069 19.848 78.5309 19.824C77.9549 19.824 77.4749 19.944 77.0909 20.184C76.7069 20.424 76.3949 20.712 76.1549 21.072C75.9149 21.456 75.7709 21.864 75.6749 22.344C75.5789 22.824 75.5309 23.328 75.5309 23.808ZM72.1229 23.808C72.1229 22.824 72.2669 21.936 72.5789 21.12C72.8669 20.304 73.2989 19.632 73.8749 19.056C74.4269 18.48 75.0989 18.048 75.8909 17.736C76.6589 17.424 77.5469 17.256 78.5309 17.256C79.4909 17.256 80.3789 17.424 81.1709 17.736C81.9629 18.048 82.6349 18.48 83.2109 19.056C83.7629 19.632 84.1949 20.304 84.5069 21.12C84.7949 21.936 84.9629 22.824 84.9629 23.808C84.9629 24.816 84.7949 25.704 84.5069 26.496C84.1949 27.312 83.7629 27.984 83.2109 28.56C82.6349 29.136 81.9629 29.568 81.1709 29.856C80.3789 30.168 79.4909 30.312 78.5309 30.312C77.5469 30.312 76.6589 30.168 75.8909 29.856C75.0989 29.568 74.4269 29.136 73.8749 28.56C73.2989 27.984 72.8669 27.312 72.5789 26.496C72.2669 25.704 72.1229 24.816 72.1229 23.808ZM87.0348 21.408C87.0828 20.616 87.2748 19.944 87.6348 19.416C87.9708 18.888 88.4268 18.48 88.9788 18.144C89.5068 17.832 90.1308 17.616 90.8028 17.472C91.4748 17.328 92.1708 17.256 92.8668 17.256C93.4908 17.256 94.1148 17.304 94.7628 17.4C95.3868 17.496 95.9868 17.664 96.5148 17.904C97.0428 18.168 97.4748 18.528 97.8108 18.984C98.1468 19.44 98.3148 20.04 98.3148 20.784V27.24C98.3148 27.816 98.3388 28.344 98.4108 28.848C98.4588 29.376 98.5788 29.76 98.7468 30H95.2908C95.2188 29.808 95.1708 29.616 95.1228 29.424C95.0748 29.232 95.0508 29.016 95.0508 28.8C94.4988 29.376 93.8508 29.76 93.1308 29.976C92.3868 30.216 91.6428 30.312 90.8748 30.312C90.2748 30.312 89.7228 30.24 89.2188 30.096C88.6908 29.952 88.2588 29.736 87.8748 29.424C87.4908 29.136 87.1788 28.752 86.9628 28.272C86.7468 27.816 86.6508 27.264 86.6508 26.616C86.6508 25.92 86.7708 25.344 87.0108 24.888C87.2508 24.432 87.5868 24.072 87.9708 23.784C88.3548 23.52 88.8108 23.328 89.3148 23.184C89.8188 23.04 90.3228 22.944 90.8508 22.848C91.3548 22.776 91.8588 22.704 92.3628 22.656C92.8428 22.608 93.2988 22.536 93.6828 22.44C94.0668 22.368 94.3548 22.224 94.5948 22.032C94.8108 21.84 94.9068 21.576 94.9068 21.216C94.9068 20.856 94.8348 20.568 94.7148 20.352C94.5948 20.136 94.4268 19.968 94.2348 19.848C94.0428 19.728 93.8028 19.656 93.5388 19.608C93.2748 19.56 92.9868 19.56 92.6988 19.536C92.0268 19.536 91.4988 19.68 91.1148 19.968C90.7308 20.256 90.4908 20.736 90.4428 21.408H87.0348ZM94.9068 23.928C94.7628 24.072 94.5708 24.168 94.3548 24.24C94.1388 24.312 93.8988 24.36 93.6588 24.408C93.4188 24.456 93.1548 24.504 92.8908 24.528C92.6028 24.576 92.3388 24.6 92.0748 24.648C91.8108 24.696 91.5468 24.768 91.3068 24.84C91.0668 24.936 90.8508 25.032 90.6588 25.176C90.4668 25.32 90.3228 25.488 90.2268 25.68C90.1068 25.896 90.0588 26.16 90.0588 26.472C90.0588 26.784 90.1068 27.048 90.2268 27.24C90.3228 27.456 90.4908 27.624 90.6828 27.744C90.8748 27.864 91.0908 27.936 91.3548 27.984C91.5948 28.032 91.8588 28.056 92.1468 28.056C92.8188 28.056 93.3228 27.96 93.7068 27.72C94.0668 27.504 94.3308 27.24 94.5228 26.928C94.6908 26.616 94.7868 26.304 94.8348 25.968C94.8828 25.656 94.8828 25.392 94.9068 25.2V23.928ZM101.056 12.864H104.464V30H101.056V12.864ZM128.441 15.672H125.033V12.864H128.441V15.672ZM125.033 17.592H128.441V30H125.033V17.592ZM131.22 17.592H134.436V19.272H134.484C134.916 18.648 135.468 18.144 136.092 17.784C136.716 17.448 137.46 17.256 138.276 17.256C139.044 17.256 139.764 17.424 140.412 17.712C141.06 18.024 141.564 18.552 141.9 19.32C142.26 18.792 142.764 18.312 143.388 17.88C144.012 17.472 144.756 17.28 145.644 17.256C146.292 17.256 146.892 17.352 147.468 17.496C148.02 17.664 148.5 17.928 148.908 18.264C149.292 18.624 149.604 19.08 149.844 19.656C150.06 20.232 150.156 20.904 150.18 21.696V30H146.772V22.968C146.772 22.56 146.748 22.176 146.724 21.792C146.676 21.432 146.604 21.12 146.46 20.832C146.316 20.568 146.1 20.352 145.812 20.184C145.524 20.04 145.164 19.968 144.684 19.944C144.204 19.944 143.796 20.04 143.508 20.232C143.22 20.424 142.98 20.664 142.812 20.952C142.644 21.24 142.524 21.576 142.476 21.96C142.428 22.344 142.404 22.704 142.404 23.088V30H138.996V23.04C138.996 22.68 138.972 22.32 138.972 21.96C138.948 21.6 138.876 21.264 138.756 20.952C138.636 20.664 138.444 20.424 138.156 20.232C137.868 20.04 137.46 19.968 136.932 19.944C136.764 19.944 136.548 19.992 136.284 20.064C136.02 20.136 135.756 20.28 135.516 20.472C135.276 20.664 135.06 20.952 134.892 21.336C134.7 21.72 134.628 22.2 134.628 22.8V30H131.22V17.592ZM161.226 22.464C161.058 21.6 160.77 20.952 160.362 20.496C159.954 20.064 159.33 19.848 158.514 19.824C157.962 19.824 157.506 19.92 157.146 20.112C156.786 20.304 156.498 20.52 156.282 20.784C156.066 21.072 155.922 21.36 155.826 21.648C155.73 21.96 155.682 22.224 155.682 22.464H161.226ZM155.682 24.624C155.73 25.728 155.994 26.544 156.522 27.024C157.026 27.528 157.77 27.768 158.73 27.768C159.402 27.768 160.002 27.6 160.506 27.264C160.986 26.928 161.298 26.544 161.418 26.16H164.418C163.938 27.648 163.194 28.728 162.21 29.352C161.202 30 160.002 30.312 158.61 30.312C157.626 30.312 156.738 30.168 155.97 29.856C155.178 29.544 154.506 29.088 153.978 28.512C153.426 27.936 152.994 27.264 152.706 26.448C152.418 25.656 152.274 24.768 152.274 23.808C152.274 22.896 152.418 22.032 152.73 21.216C153.018 20.424 153.45 19.728 154.026 19.152C154.578 18.576 155.25 18.096 156.018 17.76C156.786 17.424 157.65 17.256 158.61 17.256C159.666 17.256 160.578 17.472 161.37 17.88C162.138 18.288 162.786 18.84 163.29 19.512C163.794 20.208 164.154 21 164.394 21.864C164.61 22.752 164.682 23.664 164.634 24.624H155.682Z" fill="#5B93FF"/>
<path d="M111.276 26.832H114.636C115.164 26.832 115.692 26.76 116.22 26.568C116.724 26.4 117.18 26.112 117.588 25.704C117.972 25.296 118.308 24.768 118.548 24.096C118.788 23.448 118.908 22.656 118.908 21.696C118.908 20.832 118.812 20.064 118.644 19.368C118.476 18.672 118.212 18.072 117.828 17.568C117.444 17.088 116.916 16.704 116.292 16.44C115.668 16.176 114.876 16.032 113.964 16.032H111.276V26.832ZM107.508 12.864H114.9C116.004 12.864 117.012 13.056 117.972 13.392C118.932 13.752 119.748 14.28 120.444 14.976C121.14 15.696 121.692 16.56 122.076 17.616C122.46 18.672 122.652 19.92 122.676 21.336C122.676 22.584 122.508 23.736 122.196 24.792C121.86 25.848 121.38 26.76 120.732 27.528C120.084 28.296 119.268 28.92 118.308 29.352C117.348 29.784 116.196 30 114.9 30H107.508V12.864Z" fill="#FAB400"/>
</svg>