<svg width="166" height="42" viewBox="0 0 166 42" fill="none" xmlns="http://www.w3.org/2000/svg">
<path d="M24.1538 41.4392H20.7142C9.29259 41.4392 0 32.1466 0 20.725C0 9.30284 9.29259 0.0107422 20.7142 0.0107422C26.2469 0.0107422 31.449 2.16535 35.3617 6.07805L30.4972 10.942C27.8846 8.32896 24.4098 6.88977 20.7147 6.88977C13.0859 6.88977 6.87952 13.0961 6.87952 20.725C6.87952 27.1667 11.3052 32.5942 17.2752 34.1273V21.4374H24.1542V41.4392H24.1538Z" fill="#FBFBFB"/>
<path d="M37.3847 16.5453C39.3815 16.5453 41.0001 14.9266 41.0001 12.9299C41.0001 10.9331 39.3815 9.31445 37.3847 9.31445C35.388 9.31445 33.7693 10.9331 33.7693 12.9299C33.7693 14.9266 35.388 16.5453 37.3847 16.5453Z" fill="#FAB400"/>
<path d="M67.04 27.7806C66.368 28.6446 65.624 29.2686 64.808 29.6046C63.992 29.9406 63.152 30.1086 62.336 30.1086C61.016 30.1086 59.84 29.8926 58.784 29.4366C57.728 28.9806 56.864 28.3566 56.144 27.5406C55.424 26.7486 54.872 25.8126 54.488 24.7326C54.104 23.6526 53.912 22.4766 53.912 21.2286C53.912 19.9566 54.104 18.7806 54.488 17.6766C54.872 16.5726 55.424 15.6126 56.144 14.7966C56.864 14.0046 57.728 13.3566 58.784 12.8766C59.84 12.4206 61.016 12.2046 62.336 12.1806C63.2 12.1806 64.064 12.3246 64.88 12.5886C65.696 12.8526 66.44 13.2366 67.112 13.7406C67.784 14.2686 68.336 14.8926 68.768 15.6366C69.2 16.4046 69.464 17.2686 69.56 18.2286H65.96C65.72 17.2686 65.288 16.5486 64.664 16.0686C64.016 15.5886 63.248 15.3486 62.336 15.3486C61.472 15.3486 60.752 15.5166 60.176 15.8526C59.576 16.1886 59.096 16.6206 58.736 17.1726C58.352 17.7246 58.088 18.3486 57.92 19.0446C57.752 19.7646 57.68 20.4846 57.68 21.2286C57.68 21.9486 57.752 22.6686 57.92 23.3406C58.088 24.0126 58.352 24.6366 58.736 25.1646C59.096 25.7166 59.576 26.1486 60.176 26.4846C60.752 26.8206 61.472 26.9646 62.336 26.9646C63.584 26.9646 64.544 26.6526 65.216 26.0286C65.888 25.4046 66.296 24.4686 66.416 23.2686H62.624V20.4606H69.824V29.7246H67.424L67.04 27.7806ZM75.5309 23.5326C75.5309 24.0366 75.5789 24.5166 75.6749 24.9966C75.7709 25.4766 75.9149 25.8846 76.1549 26.2686C76.3949 26.6526 76.7069 26.9406 77.0909 27.1566C77.4749 27.3966 77.9549 27.4926 78.5309 27.4926C79.1069 27.4926 79.5869 27.3966 79.9709 27.1566C80.3549 26.9406 80.6669 26.6526 80.9069 26.2686C81.1469 25.8846 81.2909 25.4766 81.4109 24.9966C81.5069 24.5166 81.5549 24.0366 81.5549 23.5326C81.5549 23.0526 81.5069 22.5486 81.4109 22.0686C81.3149 21.5886 81.1469 21.1806 80.9069 20.7966C80.6669 20.4366 80.3549 20.1486 79.9709 19.9086C79.5869 19.6686 79.1069 19.5726 78.5309 19.5486C77.9549 19.5486 77.4749 19.6686 77.0909 19.9086C76.7069 20.1486 76.3949 20.4366 76.1549 20.7966C75.9149 21.1806 75.7709 21.5886 75.6749 22.0686C75.5789 22.5486 75.5309 23.0526 75.5309 23.5326ZM72.1229 23.5326C72.1229 22.5486 72.2669 21.6606 72.5789 20.8446C72.8669 20.0286 73.2989 19.3566 73.8749 18.7806C74.4269 18.2046 75.0989 17.7726 75.8909 17.4606C76.6589 17.1486 77.5469 16.9806 78.5309 16.9806C79.4909 16.9806 80.3789 17.1486 81.1709 17.4606C81.9629 17.7726 82.6349 18.2046 83.2109 18.7806C83.7629 19.3566 84.1949 20.0286 84.5069 20.8446C84.7949 21.6606 84.9629 22.5486 84.9629 23.5326C84.9629 24.5406 84.7949 25.4286 84.5069 26.2206C84.1949 27.0366 83.7629 27.7086 83.2109 28.2846C82.6349 28.8606 81.9629 29.2926 81.1709 29.5806C80.3789 29.8926 79.4909 30.0366 78.5309 30.0366C77.5469 30.0366 76.6589 29.8926 75.8909 29.5806C75.0989 29.2926 74.4269 28.8606 73.8749 28.2846C73.2989 27.7086 72.8669 27.0366 72.5789 26.2206C72.2669 25.4286 72.1229 24.5406 72.1229 23.5326ZM87.0348 21.1326C87.0828 20.3406 87.2748 19.6686 87.6348 19.1406C87.9708 18.6126 88.4268 18.2046 88.9788 17.8686C89.5068 17.5566 90.1308 17.3406 90.8028 17.1966C91.4748 17.0526 92.1708 16.9806 92.8668 16.9806C93.4908 16.9806 94.1148 17.0286 94.7628 17.1246C95.3868 17.2206 95.9868 17.3886 96.5148 17.6286C97.0428 17.8926 97.4748 18.2526 97.8108 18.7086C98.1468 19.1646 98.3148 19.7646 98.3148 20.5086V26.9646C98.3148 27.5406 98.3388 28.0686 98.4108 28.5726C98.4588 29.1006 98.5788 29.4846 98.7468 29.7246H95.2908C95.2188 29.5326 95.1708 29.3406 95.1228 29.1486C95.0748 28.9566 95.0508 28.7406 95.0508 28.5246C94.4988 29.1006 93.8508 29.4846 93.1308 29.7006C92.3868 29.9406 91.6428 30.0366 90.8748 30.0366C90.2748 30.0366 89.7228 29.9646 89.2188 29.8206C88.6908 29.6766 88.2588 29.4606 87.8748 29.1486C87.4908 28.8606 87.1788 28.4766 86.9628 27.9966C86.7468 27.5406 86.6508 26.9886 86.6508 26.3406C86.6508 25.6446 86.7708 25.0686 87.0108 24.6126C87.2508 24.1566 87.5868 23.7966 87.9708 23.5086C88.3548 23.2446 88.8108 23.0526 89.3148 22.9086C89.8188 22.7646 90.3228 22.6686 90.8508 22.5726C91.3548 22.5006 91.8588 22.4286 92.3628 22.3806C92.8428 22.3326 93.2988 22.2606 93.6828 22.1646C94.0668 22.0926 94.3548 21.9486 94.5948 21.7566C94.8108 21.5646 94.9068 21.3006 94.9068 20.9406C94.9068 20.5806 94.8348 20.2926 94.7148 20.0766C94.5948 19.8606 94.4268 19.6926 94.2348 19.5726C94.0428 19.4526 93.8028 19.3806 93.5388 19.3326C93.2748 19.2846 92.9868 19.2846 92.6988 19.2606C92.0268 19.2606 91.4988 19.4046 91.1148 19.6926C90.7308 19.9806 90.4908 20.4606 90.4428 21.1326H87.0348ZM94.9068 23.6526C94.7628 23.7966 94.5708 23.8926 94.3548 23.9646C94.1388 24.0366 93.8988 24.0846 93.6588 24.1326C93.4188 24.1806 93.1548 24.2286 92.8908 24.2526C92.6028 24.3006 92.3388 24.3246 92.0748 24.3726C91.8108 24.4206 91.5468 24.4926 91.3068 24.5646C91.0668 24.6606 90.8508 24.7566 90.6588 24.9006C90.4668 25.0446 90.3228 25.2126 90.2268 25.4046C90.1068 25.6206 90.0588 25.8846 90.0588 26.1966C90.0588 26.5086 90.1068 26.7726 90.2268 26.9646C90.3228 27.1806 90.4908 27.3486 90.6828 27.4686C90.8748 27.5886 91.0908 27.6606 91.3548 27.7086C91.5948 27.7566 91.8588 27.7806 92.1468 27.7806C92.8188 27.7806 93.3228 27.6846 93.7068 27.4446C94.0668 27.2286 94.3308 26.9646 94.5228 26.6526C94.6908 26.3406 94.7868 26.0286 94.8348 25.6926C94.8828 25.3806 94.8828 25.1166 94.9068 24.9246V23.6526ZM101.056 12.5886H104.464V29.7246H101.056V12.5886ZM128.441 15.3966H125.033V12.5886H128.441V15.3966ZM125.033 17.3166H128.441V29.7246H125.033V17.3166ZM131.22 17.3166H134.436V18.9966H134.484C134.916 18.3726 135.468 17.8686 136.092 17.5086C136.716 17.1726 137.46 16.9806 138.276 16.9806C139.044 16.9806 139.764 17.1486 140.412 17.4366C141.06 17.7486 141.564 18.2766 141.9 19.0446C142.26 18.5166 142.764 18.0366 143.388 17.6046C144.012 17.1966 144.756 17.0046 145.644 16.9806C146.292 16.9806 146.892 17.0766 147.468 17.2206C148.02 17.3886 148.5 17.6526 148.908 17.9886C149.292 18.3486 149.604 18.8046 149.844 19.3806C150.06 19.9566 150.156 20.6286 150.18 21.4206V29.7246H146.772V22.6926C146.772 22.2846 146.748 21.9006 146.724 21.5166C146.676 21.1566 146.604 20.8446 146.46 20.5566C146.316 20.2926 146.1 20.0766 145.812 19.9086C145.524 19.7646 145.164 19.6926 144.684 19.6686C144.204 19.6686 143.796 19.7646 143.508 19.9566C143.22 20.1486 142.98 20.3886 142.812 20.6766C142.644 20.9646 142.524 21.3006 142.476 21.6846C142.428 22.0686 142.404 22.4286 142.404 22.8126V29.7246H138.996V22.7646C138.996 22.4046 138.972 22.0446 138.972 21.6846C138.948 21.3246 138.876 20.9886 138.756 20.6766C138.636 20.3886 138.444 20.1486 138.156 19.9566C137.868 19.7646 137.46 19.6926 136.932 19.6686C136.764 19.6686 136.548 19.7166 136.284 19.7886C136.02 19.8606 135.756 20.0046 135.516 20.1966C135.276 20.3886 135.06 20.6766 134.892 21.0606C134.7 21.4446 134.628 21.9246 134.628 22.5246V29.7246H131.22V17.3166ZM161.226 22.1886C161.058 21.3246 160.77 20.6766 160.362 20.2206C159.954 19.7886 159.33 19.5726 158.514 19.5486C157.962 19.5486 157.506 19.6446 157.146 19.8366C156.786 20.0286 156.498 20.2446 156.282 20.5086C156.066 20.7966 155.922 21.0846 155.826 21.3726C155.73 21.6846 155.682 21.9486 155.682 22.1886H161.226ZM155.682 24.3486C155.73 25.4526 155.994 26.2686 156.522 26.7486C157.026 27.2526 157.77 27.4926 158.73 27.4926C159.402 27.4926 160.002 27.3246 160.506 26.9886C160.986 26.6526 161.298 26.2686 161.418 25.8846H164.418C163.938 27.3726 163.194 28.4526 162.21 29.0766C161.202 29.7246 160.002 30.0366 158.61 30.0366C157.626 30.0366 156.738 29.8926 155.97 29.5806C155.178 29.2686 154.506 28.8126 153.978 28.2366C153.426 27.6606 152.994 26.9886 152.706 26.1726C152.418 25.3806 152.274 24.4926 152.274 23.5326C152.274 22.6206 152.418 21.7566 152.73 20.9406C153.018 20.1486 153.45 19.4526 154.026 18.8766C154.578 18.3006 155.25 17.8206 156.018 17.4846C156.786 17.1486 157.65 16.9806 158.61 16.9806C159.666 16.9806 160.578 17.1966 161.37 17.6046C162.138 18.0126 162.786 18.5646 163.29 19.2366C163.794 19.9326 164.154 20.7246 164.394 21.5886C164.61 22.4766 164.682 23.3886 164.634 24.3486H155.682Z" fill="#FBFBFB"/>
<path d="M111.276 26.5566H114.636C115.164 26.5566 115.692 26.4846 116.22 26.2926C116.724 26.1246 117.18 25.8366 117.588 25.4286C117.972 25.0206 118.308 24.4926 118.548 23.8206C118.788 23.1726 118.908 22.3806 118.908 21.4206C118.908 20.5566 118.812 19.7886 118.644 19.0926C118.476 18.3966 118.212 17.7966 117.828 17.2926C117.444 16.8126 116.916 16.4286 116.292 16.1646C115.668 15.9006 114.876 15.7566 113.964 15.7566H111.276V26.5566ZM107.508 12.5886H114.9C116.004 12.5886 117.012 12.7806 117.972 13.1166C118.932 13.4766 119.748 14.0046 120.444 14.7006C121.14 15.4206 121.692 16.2846 122.076 17.3406C122.46 18.3966 122.652 19.6446 122.676 21.0606C122.676 22.3086 122.508 23.4606 122.196 24.5166C121.86 25.5726 121.38 26.4846 120.732 27.2526C120.084 28.0206 119.268 28.6446 118.308 29.0766C117.348 29.5086 116.196 29.7246 114.9 29.7246H107.508V12.5886Z" fill="#FAB400"/>
</svg>