<svg width="24" height="25" viewBox="0 0 24 25" fill="none" xmlns="http://www.w3.org/2000/svg">
<path d="M1.5 5.90039C1.5 6.0993 1.57902 6.29007 1.71967 6.43072C1.86032 6.57137 2.05109 6.65039 2.25 6.65039H21.75C21.9489 6.65039 22.1397 6.57137 22.2803 6.43072C22.421 6.29007 22.5 6.0993 22.5 5.90039C22.5 5.70148 22.421 5.51071 22.2803 5.37006C22.1397 5.22941 21.9489 5.15039 21.75 5.15039H2.25C2.05109 5.15039 1.86032 5.22941 1.71967 5.37006C1.57902 5.51071 1.5 5.70148 1.5 5.90039ZM5.25 11.9004H21.75C21.9489 11.9004 22.1397 11.9794 22.2803 12.1201C22.421 12.2607 22.5 12.4515 22.5 12.6504C22.5 12.8493 22.421 13.0401 22.2803 13.1807C22.1397 13.3214 21.9489 13.4004 21.75 13.4004H5.25C5.05109 13.4004 4.86032 13.3214 4.71967 13.1807C4.57902 13.0401 4.5 12.8493 4.5 12.6504C4.5 12.4515 4.57902 12.2607 4.71967 12.1201C4.86032 11.9794 5.05109 11.9004 5.25 11.9004ZM12 18.6504H21.75C21.9489 18.6504 22.1397 18.7294 22.2803 18.8701C22.421 19.0107 22.5 19.2015 22.5 19.4004C22.5 19.5993 22.421 19.7901 22.2803 19.9307C22.1397 20.0714 21.9489 20.1504 21.75 20.1504H12C11.8011 20.1504 11.6103 20.0714 11.4697 19.9307C11.329 19.7901 11.25 19.5993 11.25 19.4004C11.25 19.2015 11.329 19.0107 11.4697 18.8701C11.6103 18.7294 11.8011 18.6504 12 18.6504Z" fill="#5B93FF"/>
</svg>