<svg width="485" height="270" viewBox="0 0 485 270" fill="none" xmlns="http://www.w3.org/2000/svg">
<path d="M83.4237 183.403C104.61 177.717 130.28 183.793 138.078 205.044C164.268 183.858 220.223 145.581 289.792 150.13C310.36 151.462 359.751 154.711 372.944 186.035C379.572 201.795 374.536 218.659 370.409 228.667C376.745 226.49 383.764 224.606 391.497 223.338C426.233 217.684 455.705 227.79 472.667 235.621H75.7552C48.0379 236.531 28.7366 198.058 83.4237 183.403Z" stroke="#2D2D34" stroke-width="2" stroke-miterlimit="10" stroke-linecap="round" stroke-linejoin="round"/>
<path d="M245.925 78.0911C245.925 78.0911 259.15 77.0513 259.02 70.2926C258.858 63.5339 254.179 63.079 254.179 63.079C254.179 63.079 268.736 44.395 258.305 31.3C247.875 18.205 235.267 20.0896 235.267 20.0896C235.267 20.0896 237.054 5.56491 226.299 2.02308C215.576 -1.51874 208.005 5.27246 208.005 5.27246C208.005 5.27246 193.448 -6.9452 178.436 10.6989C172.067 19.3748 170.085 26.4259 163.521 25.6461C156.957 24.8662 146.169 26.3284 155.073 38.6761C164.008 51.0237 174.016 46.4421 179.41 46.3446C184.804 46.2472 227.631 70.7475 227.631 70.7475L245.925 78.0911Z" fill="#2D2D34" stroke="#2D2D34" stroke-miterlimit="10" stroke-linecap="round" stroke-linejoin="round"/>
<path d="M312.277 155.004C312.277 152.956 299.637 101.746 267.566 95.5723C235.495 89.3985 205.21 97.327 197.249 112.339C189.288 127.351 184.609 235.231 184.609 235.231H326.087L312.277 155.004Z" fill="#74A3FF" stroke="#2D2D34" stroke-width="2" stroke-miterlimit="10" stroke-linecap="round" stroke-linejoin="round"/>
<path d="M472.537 268.277H47.2905C41.5067 268.277 36.8276 260.901 36.8276 251.771C36.8276 242.64 41.5067 235.264 47.2905 235.264H472.537C478.321 235.264 483 242.64 483 251.771C483 260.869 478.321 268.277 472.537 268.277Z" stroke="#2D2D34" stroke-width="3" stroke-miterlimit="10" stroke-linecap="round" stroke-linejoin="round"/>
<path d="M241.084 208.099C241.084 208.099 220.483 216.027 215.056 221.941C215.706 224.151 216.388 224.151 216.388 224.151L251.189 223.046L241.084 208.099Z" fill="#FBFBFB" stroke="#2D2D34" stroke-width="2" stroke-miterlimit="10" stroke-linecap="round" stroke-linejoin="round"/>
<path d="M311.953 199.715C311.953 199.715 260.19 190 233.123 209.139C254.601 234.744 254.601 234.744 254.601 234.744H346.688C346.688 234.744 370.799 226.198 359.621 204.135C348.443 182.071 322.351 127.547 312.538 116.174C302.724 104.801 290.572 100.089 275.267 97.9448" fill="#74A3FF"/>
<path d="M311.953 199.715C311.953 199.715 260.19 190 233.123 209.139C254.601 234.744 254.601 234.744 254.601 234.744H346.688C346.688 234.744 370.799 226.198 359.621 204.135C348.443 182.071 322.351 127.547 312.538 116.174C302.724 104.801 290.572 100.089 275.267 97.9448" stroke="#2D2D34" stroke-width="2" stroke-miterlimit="10" stroke-linecap="round" stroke-linejoin="round"/>
<path d="M244.235 206.799C244.235 206.799 258.468 216.19 265.194 229.252" stroke="#2D2D34" stroke-width="3" stroke-miterlimit="10" stroke-linecap="round" stroke-linejoin="round" stroke-dasharray="12 12"/>
<path d="M219.475 223.046H268.021V233.346H219.475V223.046Z" fill="#FBFBFB" stroke="#2D2D34" stroke-width="2" stroke-miterlimit="10" stroke-linecap="round" stroke-linejoin="round"/>
<path d="M134.309 223.046H219.508V233.346H134.309V223.046Z" fill="#FBFBFB" stroke="#2D2D34" stroke-width="2" stroke-miterlimit="10" stroke-linecap="round" stroke-linejoin="round"/>
<path d="M207.745 160.885C189.126 220.609 137.818 206.181 123.131 189.902C111.628 177.164 83.3261 112.437 83.3261 112.437C81.279 107.173 103.44 97.7821 107.242 103.988C107.242 103.988 122.546 123.42 132.749 142.818C142.952 162.25 159.622 167.936 170.215 148.7C180.808 129.496 198.289 110.552 198.809 109.902" fill="#74A3FF"/>
<path d="M207.745 160.885C189.126 220.609 137.818 206.181 123.131 189.902C111.628 177.164 83.3261 112.437 83.3261 112.437C81.279 107.173 103.44 97.7821 107.242 103.988C107.242 103.988 122.546 123.42 132.749 142.818C142.952 162.25 159.622 167.936 170.215 148.7C180.808 129.496 198.289 110.552 198.809 109.902" stroke="#2D2D34" stroke-width="2" stroke-miterlimit="10" stroke-linecap="round" stroke-linejoin="round"/>
<path d="M287.712 172.518C287.712 172.518 289.955 189.772 299.15 198.058" stroke="#2D2D34" stroke-width="2" stroke-miterlimit="10" stroke-linecap="round" stroke-linejoin="round"/>
<path d="M211.352 81.4707C221.262 95.313 215.609 110.585 216.778 112.795C219.573 118.221 241.051 118.839 255.316 114.549C269.581 110.26 267.241 106.621 262.367 103.371C251.027 96.0279 245.015 61.4545 244.723 60.7071C244.723 60.7071 242.968 55.4106 241.636 55.1182C244.268 50.1141 244.431 41.7307 236.047 41.1459C227.664 40.561 225.454 49.6917 225.454 49.6917C225.454 49.6917 216.031 47.9371 213.301 34.0947C209.467 45.4675 200.076 47.7096 192.018 34.5821C186.624 26.0362 180.938 37.994 179.118 43.4854C178.241 46.1499 177.493 77.5389 203.878 81.0482C230.263 84.5901 236.145 65.2563 236.145 65.2563" fill="#FBFBFB"/>
<path d="M211.352 81.4707C221.262 95.313 215.609 110.585 216.778 112.795C219.573 118.221 241.051 118.839 255.316 114.549C269.581 110.26 267.241 106.621 262.367 103.371C251.027 96.0279 245.015 61.4545 244.723 60.7071C244.723 60.7071 242.968 55.4106 241.636 55.1182C244.268 50.1141 244.431 41.7307 236.047 41.1459C227.664 40.561 225.454 49.6917 225.454 49.6917C225.454 49.6917 216.031 47.9371 213.301 34.0947C209.467 45.4675 200.076 47.7096 192.018 34.5821C186.624 26.0362 180.938 37.994 179.118 43.4854C178.241 46.1499 177.493 77.5389 203.878 81.0482C230.263 84.5901 236.145 65.2563 236.145 65.2563" stroke="#2D2D34" stroke-width="2" stroke-miterlimit="10" stroke-linecap="round" stroke-linejoin="round"/>
<path d="M226.266 77.2788C226.266 77.2788 218.988 86.637 213.626 85.1423C211.352 81.4705 211.352 81.4705 211.352 81.4705C211.352 81.4705 221.262 80.7232 226.266 77.2788Z" fill="#2D2D34"/>
<path d="M436.371 217.847C436.371 217.847 431.692 209.106 433.317 204.915C434.942 200.723 438.678 201.795 438.483 201.21C438.288 200.625 432.602 189.545 440.4 186.166C448.199 182.819 449.206 177.75 446.282 174.5C443.357 171.251 446.997 160.138 452.553 159.001C458.11 157.864 460.547 156.336 460.254 152.957C459.962 149.61 475.754 135.638 479.588 140.707C483.422 145.776 480.92 150.747 477.573 152.859C474.227 154.972 471.789 162.705 477.866 166.442C483.942 170.179 480.888 192.372 466.136 199.261C451.383 206.149 449.336 217.815 449.336 217.815H436.371V217.847Z" fill="#FBFBFB" stroke="#2D2D34" stroke-width="2" stroke-miterlimit="10" stroke-linecap="round" stroke-linejoin="round"/>
<path d="M443.812 190.097C443.845 189.707 445.632 166.084 441.473 162.542C437.314 159 435.624 155.556 438.548 150.779C441.473 146.003 429.223 136.807 425.778 149.739C425.064 153.476 427.306 157.213 422.756 158.74C418.207 160.267 415.965 164.102 419.832 166.019C423.666 167.936 423.991 170.503 422.269 172.42C420.547 174.337 415.478 185.158 422.074 188.31C428.67 191.462 430.165 219.504 430.165 219.504H437.444C437.444 219.504 443.585 195.361 443.812 190.097Z" fill="#BDD4FF"/>
<path d="M427.468 218.464C427.468 218.464 418.175 207.124 412.489 206.961C406.802 206.799 402.87 197.766 405.567 194.516C402.773 190.259 389.353 191.949 390.49 184.216C391.595 176.515 399.881 171.706 406.802 176.937C412.294 175.247 410.734 165.304 415.706 165.987C420.677 166.669 422.367 174.922 421.554 179.634C429.255 181.096 434.519 191.364 433.74 200.885" fill="#FBFBFB"/>
<path d="M427.468 218.464C427.468 218.464 418.175 207.124 412.489 206.961C406.802 206.799 402.87 197.766 405.567 194.516C402.773 190.259 389.353 191.949 390.49 184.216C391.595 176.515 399.881 171.706 406.802 176.937C412.294 175.247 410.734 165.304 415.706 165.987C420.677 166.669 422.367 174.922 421.554 179.634C429.255 181.096 434.519 191.364 433.74 200.885" stroke="#2D2D34" stroke-width="2" stroke-miterlimit="10" stroke-linecap="round" stroke-linejoin="round"/>
<path d="M451.448 210.568C451.448 210.568 451.611 209.236 449.596 204.525C447.582 199.813 451.189 194.711 457.102 195.881C457.622 192.112 462.009 190.585 465.616 192.177C469.223 193.769 468.215 186.88 474.682 187.303C481.148 187.725 480.368 196.271 477.606 200.3C482.48 198.708 482.708 202.055 482.708 202.055C484.202 211.543 475.234 213.363 467.695 210.276C460.157 207.189 454.535 217.49 454.535 217.49L447.224 216.97" fill="#BDD4FF"/>
<path d="M430.717 217.522C430.815 214.987 432.96 199.423 424.349 199.78C420.644 200.105 421.554 205.044 421.554 205.044C421.554 205.044 421.652 197.896 417.85 199C414.048 200.105 414.438 203.972 416.648 206.961C409.467 212.063 415.673 213.07 415.673 213.07L420.742 217.977L430.717 217.522Z" fill="#BDD4FF"/>
<path d="M458.077 224.996L457.362 226.555H454.113C454.373 226.035 454.6 225.516 454.86 224.996H458.077Z" fill="#2D2D34"/>
<path d="M417.103 224.996H454.86C454.633 225.516 454.373 226.035 454.113 226.555H417.948L417.103 224.996Z" fill="#FBFBFB" stroke="#2D2D34" stroke-width="2" stroke-miterlimit="10" stroke-linecap="round" stroke-linejoin="round"/>
<path d="M451.124 242.055C451.124 242.055 458.792 244.459 448.589 245.402C438.386 246.344 423.374 244.979 423.374 244.979C423.374 244.979 419.962 243.225 423.796 242.867C427.663 242.51 446.185 241.405 451.416 242.055" fill="#2D2D34"/>
<path d="M417.98 226.555L427.923 244.459H449.206L457.362 226.555H417.98Z" fill="#FBFBFB" stroke="#2D2D34" stroke-width="2" stroke-miterlimit="10" stroke-linecap="round" stroke-linejoin="round"/>
<path d="M413.528 216.092H461.749V225.028H413.528V216.092Z" fill="#FBFBFB" stroke="#2D2D34" stroke-width="2" stroke-miterlimit="10" stroke-linecap="round" stroke-linejoin="round"/>
<path d="M213.334 220.706C213.334 220.121 188.834 169.139 188.834 169.139H103.927L134.341 220.706H213.334Z" fill="#FBFBFB" stroke="#2D2D34" stroke-width="2" stroke-miterlimit="10" stroke-linecap="round" stroke-linejoin="round"/>
<path d="M194.942 170.081L188.801 169.139L213.334 220.706H220.97L194.942 170.081Z" fill="#2D2D34"/>
<path d="M134.276 233.346H268.021V235.231H134.276V233.346Z" fill="#2D2D34"/>
<path d="M155.982 199.618C153.003 199.618 150.588 197.203 150.588 194.224C150.588 191.245 153.003 188.83 155.982 188.83C158.961 188.83 161.376 191.245 161.376 194.224C161.376 197.203 158.961 199.618 155.982 199.618Z" fill="#2D2D34"/>
<path d="M234.195 127.969C234.195 127.969 229.321 136.158 229.581 152.145" stroke="#2D2D34" stroke-width="2" stroke-miterlimit="10" stroke-linecap="round" stroke-linejoin="round"/>
<path d="M106.819 106.491C106.819 106.491 108.444 113.802 98.1433 116.206C87.8428 118.643 85.1783 114.517 85.0483 113.412C84.9183 112.307 85.5682 106.816 93.8541 104.898C102.108 103.014 105.877 102.981 106.819 106.491Z" fill="#2D2D34"/>
<path d="M103.895 109.123C103.895 109.123 105.552 94.8579 99.7681 92.3559C93.9842 89.8539 81.0517 93.6882 76.1776 90.0164C71.3035 86.3446 61.7504 75.1667 56.3239 76.9213C50.8974 78.676 62.7902 88.0667 65.4547 92.9408C68.0867 97.8149 71.791 106.198 77.3799 106.783C82.9688 107.368 87.8104 111.787 89.1426 115.004C96.7137 116.986 104.642 112.405 103.895 109.123Z" fill="#FBFBFB" stroke="#2D2D34" stroke-width="2" stroke-miterlimit="10" stroke-linecap="round" stroke-linejoin="round"/>
<path d="M48.7854 235.101H74.2605C76.5026 235.101 78.3547 233.281 78.3547 231.007C78.3547 228.765 76.5351 226.913 74.2605 226.913H48.7854C46.5433 226.913 44.6911 228.732 44.6911 231.007C44.6911 233.281 46.5108 235.101 48.7854 235.101Z" fill="#2D2D34"/>
<path d="M46.381 208.521V216.579C46.381 219.276 47.0958 221.778 48.2981 223.956C49.0455 225.32 50.0203 226.523 51.1575 227.595C53.8545 230.129 57.4938 231.689 61.5231 231.689C69.874 231.689 76.6327 224.93 76.6327 216.579V208.521H46.381Z" fill="#FBFBFB" stroke="#2D2D34" stroke-width="2" stroke-miterlimit="10" stroke-linecap="round" stroke-linejoin="round"/>
<path d="M38.6472 211.023C39.0047 210.665 39.4921 210.471 39.9795 210.503C39.9795 210.503 40.3044 210.503 40.8568 210.503C42.0266 210.536 44.2362 210.568 46.3808 210.568V214.272C44.7236 214.24 43.0339 214.24 41.7992 214.207V223.078C42.9364 223.436 45.0485 223.923 48.2979 223.955C49.0453 225.32 50.0201 226.522 51.1573 227.595C50.28 227.66 49.4677 227.66 48.6878 227.66C42.384 227.66 39.3296 226.133 39.1022 225.97C38.5173 225.645 38.1273 225.028 38.1273 224.345V212.323C38.0948 211.835 38.3223 211.38 38.6472 211.023Z" fill="#FBFBFB" stroke="#2D2D34" stroke-width="2" stroke-miterlimit="10" stroke-linecap="round" stroke-linejoin="round"/>
<path d="M358.386 235.231C358.386 235.231 387.111 239.65 357.216 239.423C327.322 239.195 268.053 236.336 268.053 236.336V234.711L358.386 235.231Z" fill="#2D2D34"/>
<path d="M108.847 55.4473L1 55.4473L1 44.7243L108.847 44.7243L108.847 55.4473Z" stroke="#2D2D34" stroke-width="2" stroke-miterlimit="10" stroke-linecap="round" stroke-linejoin="round"/>
<path d="M18.2559 44.7485L4.7384 44.7485L4.7384 2.34412L18.2559 2.34412L18.2559 44.7485Z" fill="#FBFBFB" stroke="#2D2D34" stroke-width="2" stroke-miterlimit="10" stroke-linecap="round" stroke-linejoin="round"/>
<path d="M39.663 44.7485L26.1456 44.7485L26.1456 2.34412L39.663 2.34412L39.663 44.7485Z" fill="#BDD4FF"/>
<path d="M61.6657 44.7539L48.1483 44.7539L48.1483 27.2397L61.6657 27.2397L61.6657 44.7539Z" fill="#2D2D34"/>
<path d="M80.5321 44.7539L67.0146 44.7539L67.0146 27.2397L80.5321 27.2397L80.5321 44.7539Z" fill="#2D2D34"/>
<path d="M48.5577 188.83C42.3844 188.83 37.3798 183.825 37.3798 177.652C37.3798 171.479 42.3844 166.474 48.5577 166.474C54.7311 166.474 59.7356 171.479 59.7356 177.652C59.7356 183.825 54.7311 188.83 48.5577 188.83Z" stroke="#2D2D34" stroke-width="2" stroke-miterlimit="10" stroke-linecap="round" stroke-linejoin="round"/>
<path d="M66.1047 160.918C63.5743 160.918 61.523 158.866 61.523 156.336C61.523 153.806 63.5743 151.754 66.1047 151.754C68.635 151.754 70.6863 153.806 70.6863 156.336C70.6863 158.866 68.635 160.918 66.1047 160.918Z" fill="#2D2D34"/>
<path d="M44.626 145.548C43.28 145.548 42.1889 144.457 42.1889 143.111C42.1889 141.765 43.28 140.674 44.626 140.674C45.9719 140.674 47.063 141.765 47.063 143.111C47.063 144.457 45.9719 145.548 44.626 145.548Z" stroke="#2D2D34" stroke-width="2" stroke-miterlimit="10" stroke-linecap="round" stroke-linejoin="round"/>
<path d="M273.61 157.278C273.61 157.278 252.749 156.531 246.283 154.679C245.113 179.244 250.929 183.338 250.929 183.338H269.451C269.451 183.338 274.422 171.153 273.61 157.278Z" stroke="#2D2D34" stroke-width="2" stroke-miterlimit="10" stroke-linecap="round" stroke-linejoin="round"/>
<path d="M270.783 163.03L273.61 157.278L246.283 154.679L249.337 160.95L270.783 163.03Z" fill="#FBFBFB" stroke="#2D2D34" stroke-width="2" stroke-miterlimit="10" stroke-linecap="round" stroke-linejoin="round"/>
<path d="M269.321 104.736C269.321 104.736 272.213 88.1966 255.446 93.5256C253.399 94.1754 258.24 96.255 257.266 99.1145C256.291 101.941 245.958 115.459 242.351 116.694C237.639 119.033 246.77 123.907 255.056 121.015C263.342 118.123 271.14 108.538 269.321 104.736Z" fill="#74A3FF" stroke="#2D2D34" stroke-width="2" stroke-miterlimit="10" stroke-linecap="round" stroke-linejoin="round"/>
<path d="M231.888 118.903C230.75 112.112 223.082 116.596 219.898 109.35C217.915 104.801 217.395 101.096 217.201 97.6846C217.136 96.4498 214.276 98.302 212.359 99.3418C207.29 102.169 208.59 113.379 212.067 116.401C215.543 119.423 233.058 125.694 231.888 118.903Z" fill="#74A3FF" stroke="#2D2D34" stroke-width="2" stroke-miterlimit="10" stroke-linecap="round" stroke-linejoin="round"/>
<path d="M112.148 112.079C112.148 112.079 107.892 124.882 92.3921 121.73" stroke="#2D2D34" stroke-width="3" stroke-miterlimit="10" stroke-linecap="round" stroke-linejoin="round" stroke-dasharray="12 12"/>
</svg>