<svg width="14" height="11" viewBox="0 0 14 11" fill="none" xmlns="http://www.w3.org/2000/svg">
<path d="M12.4634 10.3659H1.53679C1.18163 10.3655 0.84113 10.2243 0.590006 9.9731C0.338882 9.72195 0.197638 9.38144 0.197266 9.02628V2.27812C0.197638 1.92296 0.338882 1.58246 0.590006 1.33131C0.84113 1.08016 1.18163 0.938883 1.53679 0.938477H12.4634C12.8185 0.938883 13.159 1.08016 13.4102 1.33131C13.6613 1.58246 13.8025 1.92296 13.8029 2.27812V9.02628C13.8025 9.38144 13.6613 9.72195 13.4102 9.9731C13.159 10.2243 12.8185 10.3655 12.4634 10.3659ZM1.53679 1.45048C1.31736 1.45071 1.107 1.53799 0.951857 1.69316C0.796715 1.84833 0.709469 2.0587 0.709266 2.27812V9.02628C0.709469 9.24571 0.796715 9.45608 0.951857 9.61125C1.107 9.76642 1.31736 9.8537 1.53679 9.85393H12.4634C12.6828 9.8537 12.8932 9.76642 13.0483 9.61125C13.2034 9.45608 13.2907 9.24571 13.2909 9.02628V2.27812C13.2907 2.0587 13.2034 1.84833 13.0483 1.69316C12.8932 1.53799 12.6828 1.45071 12.4634 1.45048H1.53679Z" fill="#FBFBFB"/>
<path d="M7.00021 7.15879C6.9378 7.15883 6.87753 7.13607 6.83073 7.09479L0.661133 1.64865L0.999949 1.26465L7.00021 6.5618L13.0007 1.26529L13.3395 1.64929L7.16993 7.09543C7.12301 7.1366 7.06263 7.15914 7.00021 7.15879Z" fill="#FBFBFB"/>
<path d="M0.521729 9.56152L4.6664 4.83911L5.05143 5.17703L0.906753 9.89944L0.521729 9.56152Z" fill="#FBFBFB"/>
<path d="M8.96167 5.17188L9.34669 4.83396L13.4915 9.55647L13.1064 9.89439L8.96167 5.17188Z" fill="#FBFBFB"/>
</svg>