<svg width="24" height="23" viewBox="0 0 24 23" fill="none" xmlns="http://www.w3.org/2000/svg">
<path d="M12.2219 22.6895C12.1474 22.6895 12.0729 22.6895 11.9979 22.6891C10.2341 22.6934 8.60449 22.6486 7.01966 22.5521C5.56666 22.4637 4.24035 21.9616 3.18391 21.1002C2.16454 20.269 1.46843 19.1452 1.11497 17.7602C0.807337 16.5544 0.791029 15.3708 0.775407 14.226C0.764077 13.4046 0.752403 12.4313 0.75 11.4415C0.752403 10.4476 0.764077 9.47424 0.775407 8.65283C0.791029 7.50819 0.807337 6.32458 1.11497 5.11866C1.46843 3.73369 2.16454 2.60982 3.18391 1.77864C4.24035 0.917236 5.56666 0.415125 7.01983 0.326719C8.60467 0.230417 10.2347 0.185442 12.0021 0.189733C13.7664 0.185957 15.3955 0.230417 16.9803 0.326719C18.4333 0.415125 19.7596 0.917236 20.8161 1.77864C21.8356 2.60982 22.5316 3.73369 22.885 5.11866C23.1927 6.32441 23.209 7.50819 23.2246 8.65283C23.2359 9.47424 23.2478 10.4476 23.25 11.4374V11.4415C23.2478 12.4313 23.2359 13.4046 23.2246 14.226C23.209 15.3706 23.1928 16.5543 22.885 17.7602C22.5316 19.1452 21.8356 20.269 20.8161 21.1002C19.7596 21.9616 18.4333 22.4637 16.9803 22.5521C15.4626 22.6445 13.9035 22.6895 12.2219 22.6895ZM11.9979 20.9313C13.7329 20.9354 15.326 20.8916 16.8736 20.7976C17.9722 20.7308 18.9248 20.3743 19.7052 19.7379C20.4266 19.1496 20.9234 18.338 21.1817 17.3255C21.4379 16.3218 21.4526 15.2441 21.4669 14.202C21.478 13.3861 21.4897 12.4196 21.4921 11.4394C21.4897 10.4591 21.478 9.49278 21.4669 8.67687C21.4526 7.63471 21.4379 6.55701 21.1817 5.55314C20.9234 4.54067 20.4266 3.72906 19.7052 3.14077C18.9248 2.50459 17.9722 2.14805 16.8736 2.08128C15.326 1.98703 13.7329 1.9436 12.002 1.94738C10.2673 1.94326 8.67402 1.98703 7.12643 2.08128C6.02776 2.14805 5.07517 2.50459 4.29477 3.14077C3.57342 3.72906 3.07662 4.54067 2.81826 5.55314C2.56213 6.55701 2.54736 7.63454 2.53311 8.67687C2.52196 9.49346 2.51028 10.4604 2.50788 11.4415C2.51028 12.4182 2.52196 13.3854 2.53311 14.202C2.54736 15.2441 2.56213 16.3218 2.81826 17.3255C3.07662 18.338 3.57342 19.1496 4.29477 19.7379C5.07517 20.3741 6.02776 20.7306 7.12643 20.7974C8.67402 20.8916 10.2676 20.9356 11.9979 20.9313ZM11.956 16.9326C8.92706 16.9326 6.46259 14.4684 6.46259 11.4394C6.46259 8.41045 8.92706 5.94624 11.956 5.94624C14.985 5.94624 17.4493 8.41045 17.4493 11.4394C17.4493 14.4684 14.985 16.9326 11.956 16.9326ZM11.956 7.70406C9.8963 7.70406 8.22047 9.37982 8.22047 11.4394C8.22047 13.499 9.8963 15.1748 11.956 15.1748C14.0158 15.1748 15.6915 13.499 15.6915 11.4394C15.6915 9.37982 14.0158 7.70406 11.956 7.70406ZM18.0646 4.18842C17.3366 4.18842 16.7462 4.7786 16.7462 5.50679C16.7462 6.23498 17.3366 6.82515 18.0646 6.82515C18.7928 6.82515 19.383 6.23498 19.383 5.50679C19.383 4.7786 18.7928 4.18842 18.0646 4.18842Z" fill="#FBFBFB"/>
</svg>