<svg width="18" height="19" viewBox="0 0 18 19" fill="none" xmlns="http://www.w3.org/2000/svg">
<path d="M17.75 18.1892V11.7798C17.75 8.62987 17.0719 6.22363 13.3969 6.22363C11.625 6.22363 10.4438 7.18613 9.96253 8.10487H9.91878V6.50801H6.44067V18.1892H10.0719V12.3923C10.0719 10.8611 10.3563 9.39549 12.2375 9.39549C14.0969 9.39549 14.1187 11.1236 14.1187 12.4798V18.1673H17.75V18.1892Z" fill="#FBFBFB"/>
<path d="M0.534424 6.50879H4.16565V18.19H0.534424V6.50879Z" fill="#FBFBFB"/>
<path d="M2.34999 0.689453C1.19062 0.689453 0.25 1.63007 0.25 2.78944C0.25 3.94881 1.19062 4.9113 2.34999 4.9113C3.50935 4.9113 4.44997 3.94881 4.44997 2.78944C4.44997 1.63007 3.50935 0.689453 2.34999 0.689453Z" fill="#FBFBFB"/>
</svg>