<svg width="12" height="17" viewBox="0 0 12 17" fill="none" xmlns="http://www.w3.org/2000/svg">
<path d="M6.00007 0.439453C2.74097 0.439453 0.0895996 3.09082 0.0895996 6.34993C0.0895996 7.42285 0.570782 8.57678 0.590947 8.62546C0.746358 8.99434 1.05301 9.56731 1.27413 9.90316L5.32663 16.0435C5.49247 16.2952 5.73793 16.4395 6.00007 16.4395C6.26222 16.4395 6.50768 16.2952 6.67352 16.0438L10.7264 9.90316C10.9478 9.56731 11.2541 8.99434 11.4095 8.62546C11.4297 8.57713 11.9105 7.4232 11.9105 6.34993C11.9105 3.09082 9.25918 0.439453 6.00007 0.439453ZM10.7684 8.35566C10.6297 8.6863 10.3443 9.21929 10.1457 9.52037L6.0929 15.661C6.01294 15.7823 5.98756 15.7823 5.90759 15.661L1.85475 9.52037C1.65622 9.21929 1.37078 8.68595 1.23206 8.35532C1.22615 8.34106 0.784949 7.27891 0.784949 6.34993C0.784949 3.47431 3.12445 1.1348 6.00007 1.1348C8.87569 1.1348 11.2152 3.47431 11.2152 6.34993C11.2152 7.2803 10.773 8.34523 10.7684 8.35566Z" fill="#FBFBFB"/>
<path d="M6.00017 3.22168C4.27466 3.22168 2.87109 4.62559 2.87109 6.35075C2.87109 8.07592 4.27466 9.47983 6.00017 9.47983C7.72568 9.47983 9.12924 8.07592 9.12924 6.35075C9.12924 4.62559 7.72568 3.22168 6.00017 3.22168ZM6.00017 8.78448C4.65849 8.78448 3.56644 7.69278 3.56644 6.35075C3.56644 5.00873 4.65849 3.91703 6.00017 3.91703C7.34185 3.91703 8.43389 5.00873 8.43389 6.35075C8.43389 7.69278 7.34185 8.78448 6.00017 8.78448Z" fill="#FBFBFB"/>
</svg>