<svg width="50" height="46" viewBox="0 0 50 46" fill="none" xmlns="http://www.w3.org/2000/svg">
<path fill-rule="evenodd" clip-rule="evenodd" d="M15.1868 37.7832H14.1195L13.4625 43.3671H13.2161L12.3949 37.7832H10.7524L10.0132 43.3671H9.84898L9.02803 37.7832H7.96069L8.9462 45.0094H10.7527L11.5736 39.343H11.6557L12.3949 45.0094H14.2835L15.1868 37.7832ZM16.8291 45.0098H17.9789V42.2999H20.2784V45.0098H21.4278V37.8654H20.2781V40.5753H17.9786V37.8654H16.8288V45.0098H16.8291ZM27.5042 41.1504C27.5042 39.0152 26.519 37.7012 24.7123 37.7012C22.7412 37.7012 21.9203 39.0152 21.9203 41.1504C21.9203 43.1212 22.5773 45.01 24.7123 45.01C26.7651 45.01 27.5042 43.1212 27.5042 41.1504ZM27.997 45.0098H31.2817V43.3673H29.1464V37.7833H27.997V45.0098ZM39.1646 37.8654H37.0299L35.4695 45.0098H36.7011L36.9475 43.6958H39.2467L39.4931 45.0098H40.6431L39.1646 37.8654ZM37.7688 39.4258H38.4261L39.0009 42.546H37.1121L37.7688 39.4258ZM4.51178 45.0094H7.468V43.3668H5.08665V41.971H7.468V40.9855H5.08665V39.4257H7.468V37.7832H3.9369V43.5308L1.96618 37.7832H0.159424V45.0094H1.30918L1.22706 39.343L3.27989 45.0094H4.51178ZM31.7745 45.0098H35.0586V43.3673H32.9239V37.7833H31.7745V45.0098ZM45.0771 43.5308L43.0245 37.7832H41.2178V45.0094H42.3678L42.2854 39.343L44.3385 45.0094H46.966C49.3476 45.0094 49.8404 43.7772 49.8404 41.0673C49.7579 38.8508 49.1012 37.7832 46.966 37.7832H44.9952V41.0673L45.0771 43.5308ZM46.2271 41.3145V39.3438H47.0483C48.2799 39.3438 48.8545 39.7547 48.8545 41.3969V41.3145C48.8545 42.957 48.2796 43.4497 47.0483 43.3676H46.2271V41.3145ZM26.4366 41.1505C26.4366 42.2181 26.3547 43.4497 24.7122 43.4497C23.07 43.4497 22.9058 42.2181 22.9058 41.1505C22.9058 40.165 23.3985 39.3438 24.7122 39.3438C26.0262 39.3438 26.4366 40.165 26.4366 41.1505ZM9.43871 14.5445C9.43871 14.0517 9.76721 13.7232 10.0136 13.9696C12.9698 16.9258 23.8913 24.9735 23.8092 32.0351C23.7271 32.4455 23.3986 32.6918 22.9879 32.6918C14.8584 32.1173 8.20683 28.915 9.43871 14.5445ZM34.7304 1.98078C32.4312 0.748895 30.0498 0.174314 27.1757 0.00976562C26.6009 0.00976562 26.3545 0.420393 26.2726 0.913146C26.0263 4.60849 26.1081 6.66133 26.0263 10.2743C25.9438 10.8491 26.3548 11.5883 27.0118 10.767C30.0495 7.81079 31.7745 6.16858 34.8122 3.21236C35.3053 2.80203 35.1413 2.14503 34.7304 1.98078ZM15.0226 1.98078C17.404 0.748895 19.7853 0.174314 22.6594 0.00976562C23.2343 0.00976562 23.4807 0.420393 23.5628 0.913146C23.8092 4.60849 23.7271 6.66133 23.8092 10.2743C23.8913 10.8491 23.4807 11.5883 22.7416 10.767C19.7035 7.81079 17.9789 6.16858 15.0229 3.21236C14.4478 2.80203 14.6941 2.14503 15.0226 1.98078ZM36.6193 4.28029C30.8708 9.78181 25.7799 13.4769 26.0263 23.3313C26.0263 23.7416 26.3548 24.1526 26.9294 23.6598C31.692 18.979 34.4019 16.4334 39.2467 11.7528C39.9858 11.0137 40.1504 10.3567 39.904 9.20693C39.4112 7.15409 39.0009 6.25071 37.7687 4.60849C37.4405 4.28029 37.112 4.11574 36.6193 4.28029ZM13.2162 4.28029C18.9641 9.78181 24.0556 13.4772 23.8092 23.3313C23.8092 23.7416 23.4807 24.1526 22.9058 23.6598C18.1428 18.9787 15.4333 16.4334 10.5885 11.7528C9.84934 11.0137 9.68509 10.3567 9.93146 9.20693C10.4242 7.15409 10.8348 6.25071 12.0664 4.60849C12.3949 4.28029 12.7234 4.11574 13.2162 4.28029ZM40.4786 14.5445C40.4786 14.0517 40.2322 13.7232 39.9037 13.9696C37.0299 16.9258 26.026 24.9735 26.1081 32.0351C26.1899 32.4455 26.6009 32.6918 27.0118 32.6918C35.0589 32.1173 41.7102 28.915 40.4786 14.5445Z" fill="#A5C4FF"/>
</svg>