<svg width="84" height="45" viewBox="0 0 84 45" fill="none" xmlns="http://www.w3.org/2000/svg">
<path d="M20.1341 23.369H25.8625L34.3033 0.86377H28.9833L25.1928 10.9572L25.8461 0.86377H20.186L11.7457 23.369H17.0652L20.7852 13.4122L20.1341 23.369Z" fill="#A5C4FF"/>
<path d="M34.9934 0.86377L26.5536 23.369H31.8731L40.3129 0.86377H34.9934Z" fill="#A5C4FF"/>
<path fill-rule="evenodd" clip-rule="evenodd" d="M11.1322 15.6118C3.6988 24.3413 -3.31328 35.9565 2.88045 41.3053C8.8294 46.4431 16.2522 43.473 21.3635 41.4278L21.4989 41.3736C26.6139 39.3275 83.1501 14.7761 83.1501 14.7761C83.6956 14.5034 83.5936 14.1623 82.9114 14.3326C82.7955 14.3616 71.8412 17.3289 59.2063 20.7522L59.8336 19.0045H53.6278L55.6668 13.5488H60.7814L62.3551 9.35464H57.2406L58.9939 4.61487H64.3808L65.8104 0.86377H49.5791L44.0059 7.61548L46.579 0.86377H41.1912L32.8187 23.369H38.1382L41.7128 13.9578L41.9576 23.369L49.6099 23.3524C35.1096 27.2815 21.3627 31.007 21.3627 31.007C13.5873 33.1897 4.72162 28.4326 11.1322 15.6118ZM47.235 21.8685L46.8939 10.1388L54.9368 1.30821L47.235 21.8685Z" fill="#A5C4FF"/>
</svg>