<svg width="80" height="81" viewBox="0 0 80 81" fill="none" xmlns="http://www.w3.org/2000/svg">
<g clip-path="url(#clip0_207_5165-608697)">
<path d="M34.6841 20.9351C34.6841 20.923 34.6878 20.912 34.6878 20.8999C34.6878 18.1565 33.5853 15.669 31.8049 13.8474C31.7819 13.8268 31.7515 13.8195 31.7285 13.7964C31.703 13.771 31.6957 13.737 31.6715 13.7115C29.8474 11.9129 27.3454 10.7983 24.5862 10.7983C19.0169 10.7983 14.4858 15.3294 14.4858 20.8999C14.4858 26.4704 19.0169 31.0015 24.5862 31.0015C30.1409 31.0015 34.6599 26.4959 34.6854 20.946C34.6854 20.9436 34.6841 20.9399 34.6841 20.9351ZM32.2585 21.0248C32.1906 25.1969 28.768 28.5771 24.5862 28.5771C20.3547 28.5771 16.9115 25.1339 16.9115 20.9011C16.9115 16.6684 20.3547 13.2252 24.5862 13.2252C26.5413 13.2252 28.3932 13.9602 29.8232 15.3003C29.8765 15.3682 29.9408 15.441 30.0136 15.5126L30.2792 15.766C31.5235 17.1414 32.2221 18.8915 32.2597 20.7386L32.2585 21.0248Z" fill="#FFC327"/>
<path d="M72.0974 47.7669H69.1442C68.6093 45.0975 67.5639 42.5676 66.0624 40.2936L68.1412 38.2148C68.9428 37.4131 69.3831 36.347 69.3831 35.2131C69.3831 34.0779 68.9428 33.013 68.1412 32.2113C67.3395 31.4096 66.2734 30.9682 65.1382 30.9682C64.0042 30.9682 62.9406 31.4096 62.1365 32.2113L60.0711 34.278C57.7958 32.7632 55.261 31.7092 52.5867 31.1659V28.2539C52.5867 25.9132 50.6838 24.009 48.3419 24.009C45.9999 24.009 44.097 25.9132 44.097 28.2539V31.1659C42.889 31.4121 41.715 31.7747 40.5762 32.2247C40.4646 31.2823 40.062 30.4054 39.3804 29.7238L38.592 28.9331C39.2712 27.7518 39.7988 26.488 40.159 25.177H41.2651C43.607 25.177 45.5099 23.2728 45.5099 20.9321C45.5099 18.5914 43.607 16.6872 41.2651 16.6872H40.1784C39.8218 15.3677 39.2942 14.0942 38.6151 12.9044L39.3804 12.1392C40.1832 11.3375 40.6235 10.2714 40.6235 9.13743C40.6235 8.00344 40.1808 6.93738 39.3779 6.13691C38.5762 5.33524 37.5102 4.89377 36.3774 4.89377C35.2422 4.89377 34.1761 5.33645 33.3745 6.13813L32.6213 6.89129C31.4291 6.20605 30.1532 5.67483 28.8288 5.3122V4.25219C28.8288 1.91145 26.9247 0.00732422 24.584 0.00732422C22.2432 0.00732422 20.3391 1.91145 20.3391 4.25219V5.3122C19.0147 5.67362 17.7388 6.20483 16.5466 6.89129L15.791 6.13449C14.9893 5.33403 13.9233 4.89377 12.7905 4.89377C11.6565 4.89377 10.5904 5.33524 9.78756 6.13813C8.13448 7.79363 8.13448 10.4861 9.78877 12.1416L10.5528 12.9057C9.87367 14.0954 9.34852 15.3665 8.99073 16.6872H7.90405C5.56331 16.6872 3.65918 18.5914 3.65918 20.9321C3.65918 23.2728 5.56331 25.177 7.90405 25.177H9.01135C9.37277 26.4892 9.89914 27.7518 10.5783 28.9331L9.78877 29.7226C8.13448 31.3769 8.13327 34.0694 9.78877 35.7261C10.5904 36.5277 11.6565 36.9692 12.7905 36.9692C13.9233 36.9692 14.9893 36.529 15.7922 35.7273L16.5927 34.9268C17.7715 35.5999 19.0317 36.1215 20.3391 36.4792V37.6096C20.3391 39.9503 22.2432 41.8545 24.584 41.8545C26.647 41.8545 28.3667 40.3736 28.7463 38.4197L30.6189 40.2911C29.1175 42.5652 28.0744 45.0951 27.5384 47.7633H24.5827C22.242 47.7633 20.3379 49.6662 20.3379 52.0082C20.3379 54.3501 22.242 56.253 24.5827 56.253H27.5541C28.1011 58.9067 29.1514 61.4257 30.6578 63.6864L28.5414 65.8028C27.7385 66.6045 27.297 67.6717 27.297 68.8069C27.297 69.9409 27.7385 71.0058 28.5402 71.8087C29.3418 72.6091 30.4079 73.0518 31.5419 73.0518C32.6759 73.0518 33.7407 72.6091 34.5436 71.8087L36.6721 69.679C38.9328 71.1719 41.447 72.2138 44.0958 72.751V75.7637C44.0958 78.1044 45.9987 80.0085 48.3407 80.0085C50.6826 80.0085 52.5855 78.1044 52.5855 75.7637V72.751C55.2355 72.2138 57.7473 71.1719 60.008 69.679L62.1365 71.8087C62.9382 72.6091 64.0042 73.0518 65.1394 73.0518C66.2734 73.0518 67.3371 72.6091 68.1399 71.8099C68.9416 71.0082 69.3843 69.9409 69.3843 68.8069C69.3843 67.6717 68.9416 66.6069 68.1412 65.804L66.0248 63.6864C67.5299 61.4257 68.5814 58.9079 69.1296 56.2518H72.0986C74.4405 56.2518 76.3435 54.3477 76.3435 52.007C76.3422 49.6711 74.4381 47.7669 72.0974 47.7669ZM26.4056 34.5048V37.6132C26.4056 38.6186 25.5918 39.4324 24.5864 39.4324C23.581 39.4324 22.7671 38.6186 22.7671 37.6132V34.5048C20.3476 34.1822 18.1318 33.2313 16.2786 31.8172L14.0797 34.0148C13.7244 34.3689 13.2586 34.5472 12.7929 34.5472C12.3272 34.5472 11.8615 34.3701 11.5061 34.0148C10.7966 33.3041 10.7966 32.1519 11.5061 31.4412L13.6989 29.2484C12.275 27.3964 11.3157 25.177 10.987 22.7538H7.90647C6.90105 22.7538 6.08724 21.94 6.08724 20.9345C6.08724 19.9291 6.90105 19.1153 7.90647 19.1153H10.9749C11.2927 16.6824 12.2472 14.4532 13.6674 12.5915L11.5037 10.4291C10.793 9.71837 10.793 8.56619 11.5037 7.85548C12.2144 7.14477 13.3666 7.14598 14.0773 7.85548L16.2361 10.0131C18.0978 8.58196 20.3294 7.61898 22.7659 7.29394V4.25583C22.7659 3.2504 23.5797 2.4366 24.5852 2.4366C25.5906 2.4366 26.4044 3.2504 26.4044 4.25583V7.29394C28.841 7.61898 31.075 8.58196 32.9354 10.0131L35.0906 7.85669C35.8013 7.14477 36.9535 7.14598 37.663 7.85548C38.3737 8.56498 38.3737 9.71716 37.6642 10.4279L35.5018 12.5915C36.922 14.4544 37.8765 16.6836 38.1954 19.1165H41.2626C42.2681 19.1165 43.0819 19.9303 43.0819 20.9357C43.0819 21.9412 42.2681 22.755 41.2626 22.755H38.1833C37.8546 25.1782 36.8941 27.3976 35.4714 29.2496L37.6642 31.4424C38.3749 32.1519 38.3749 33.3053 37.6642 34.0148C37.3089 34.3701 36.8431 34.5472 36.3774 34.5472C35.9117 34.5472 35.446 34.3701 35.0906 34.0148L32.8918 31.8159C31.0422 33.2313 28.8252 34.1822 26.4056 34.5048ZM72.0986 53.831H67.046C66.6676 57.6454 65.1467 61.1274 62.829 63.9278L66.425 67.5238C67.1357 68.2333 67.1357 69.3867 66.425 70.0962C66.0697 70.4515 65.6027 70.6274 65.1382 70.6274C64.6713 70.6274 64.2056 70.4503 63.8502 70.0962L60.2481 66.4941C57.4441 68.7948 53.9657 70.3011 50.1587 70.6674V75.7673C50.1587 76.7727 49.3449 77.5865 48.3394 77.5865C47.334 77.5865 46.5202 76.7727 46.5202 75.7673V70.6674C42.712 70.2999 39.2336 68.7948 36.4296 66.4941L32.8275 70.0962C32.4721 70.4515 32.0064 70.6274 31.5407 70.6274C31.075 70.6274 30.6092 70.4503 30.2539 70.0962C29.5432 69.3867 29.5432 68.2333 30.2539 67.5238L33.8499 63.9278C31.5334 61.1262 30.0125 57.6441 29.6341 53.8323H24.5815C23.5761 53.8323 22.7623 53.0185 22.7623 52.013C22.7623 51.0076 23.5761 50.1938 24.5815 50.1938H29.6293C29.9883 46.3674 31.4946 42.8696 33.8062 40.0546L30.2527 36.5011C29.542 35.7904 29.542 34.6382 30.2527 33.9275C30.9634 33.2168 32.1156 33.218 32.8263 33.9275L36.3738 37.4737C39.1863 35.1463 42.6877 33.6243 46.5202 33.2543V28.2551C46.5202 27.2497 47.334 26.4359 48.3394 26.4359C49.3449 26.4359 50.1587 27.2497 50.1587 28.2551V33.2543C53.9912 33.6243 57.4914 35.1463 60.3051 37.4737L63.8502 33.9275C64.5609 33.2168 65.7131 33.2168 66.4238 33.9275C67.1345 34.637 67.1345 35.7891 66.4238 36.4999L62.8727 40.0522C65.1843 42.8684 66.6882 46.3649 67.0484 50.1914H72.0937C73.0992 50.1914 73.913 51.0052 73.913 52.0106C73.9166 53.0172 73.1028 53.831 72.0986 53.831Z" fill="#FFC327"/>
<path d="M59.0584 41.2965C59.0232 41.2601 59.0098 41.2128 58.9783 41.174C56.2398 38.473 52.4849 36.8018 48.3419 36.8018C39.9819 36.8018 33.1816 43.602 33.1816 51.962C33.1816 60.322 39.9819 67.1222 48.3419 67.1222C56.68 67.1222 63.4633 60.3559 63.4985 52.0287C63.4985 52.0239 63.4973 52.0178 63.4973 52.0129C63.4973 51.9984 63.5009 51.9863 63.5009 51.9705C63.5009 51.9681 63.5009 51.9644 63.5009 51.962C63.5009 47.8433 61.843 44.1041 59.1663 41.3692C59.1336 41.3401 59.0911 41.328 59.0584 41.2965ZM61.0729 52.1172C60.9892 59.0643 55.2986 64.6966 48.3419 64.6966C41.3197 64.6966 35.6073 58.9842 35.6073 51.962C35.6073 44.9398 41.3197 39.2274 48.3419 39.2274C51.5971 39.2274 54.6789 40.4548 57.0548 42.6888L57.0972 42.7652L57.3422 43.0102C57.4283 43.0951 57.5144 43.1678 57.5921 43.2309C59.8055 45.5717 61.0365 48.6037 61.0753 51.8068L61.0729 52.1172Z" fill="#FFC327"/>
</g>
<defs>
<clipPath id="clip0_207_5165-608697">
<rect width="80" height="80.0012" fill="white" transform="translate(0 0.00732422)"/>
</clipPath>
</defs>
</svg>