<svg width="80" height="81" viewBox="0 0 80 81" fill="none" xmlns="http://www.w3.org/2000/svg">
<g clip-path="url(#clip0_207_5149-511197)">
<path d="M49.7913 0.00732422C33.1354 0.00732422 19.585 13.5207 19.585 30.1311C19.585 46.7415 33.1354 60.2549 49.7913 60.2549C66.4472 60.2549 79.9977 46.7415 79.9977 30.1311C79.9975 13.5207 66.4471 0.00732422 49.7913 0.00732422ZM49.7913 55.564C35.722 55.564 24.2759 44.1549 24.2759 30.1311C24.2759 16.1073 35.722 4.69829 49.7913 4.69829C63.8606 4.69829 75.3067 16.1075 75.3067 30.1311C75.3067 44.1548 63.8605 55.564 49.7913 55.564Z" fill="#5B93FF"/>
<path d="M52.1368 14.9509H47.4458V32.4767H65.0097V27.7857H52.1368V14.9509Z" fill="#5B93FF"/>
<path d="M2.25 56.6909L14.7941 44.1823L18.1059 47.5035L5.56182 60.0121L2.25 56.6909Z" fill="#5B93FF"/>
<path d="M0.000488281 41.1929L11.5484 29.6776L14.8602 32.9988L3.31231 44.5141L0.000488281 41.1929Z" fill="#5B93FF"/>
<path d="M35.5852 76.6772L47.1332 65.1618L50.4451 68.483L38.897 79.9984L35.5852 76.6772Z" fill="#5B93FF"/>
<path d="M5.60693 71.084L20.2667 56.4656L23.5785 59.7868L8.91875 74.4052L5.60693 71.084Z" fill="#5B93FF"/>
<path d="M20.0422 74.4331L32.5863 61.9245L35.8981 65.2457L23.3541 77.7543L20.0422 74.4331Z" fill="#5B93FF"/>
</g>
<defs>
<clipPath id="clip0_207_5149-511197">
<rect width="80" height="80" fill="white" transform="translate(0 0.00732422)"/>
</clipPath>
</defs>
</svg>