<svg width="80" height="81" viewBox="0 0 80 81" fill="none" xmlns="http://www.w3.org/2000/svg">
<path d="M5.33333 66.696H8V64.0294H5.33333C3.86033 64.0294 2.66667 62.8357 2.66667 61.3627V8.02938C2.66667 6.55638 3.86033 5.36271 5.33333 5.36271H64C65.473 5.36271 66.6667 6.55638 66.6667 8.02938V10.696H69.3333V8.02938C69.3333 5.08404 66.9453 2.69604 64 2.69604H5.33333C2.388 2.69604 0 5.08404 0 8.02938V61.3627C0 64.308 2.388 66.696 5.33333 66.696Z" fill="#5B93FF"/>
<path d="M5.3335 8.03003H8.00016V10.6967H5.3335V8.03003Z" fill="#5B93FF"/>
<path d="M10.6665 8.03003H13.3332V10.6967H10.6665V8.03003Z" fill="#5B93FF"/>
<path d="M16 8.03003H18.6667V10.6967H16V8.03003Z" fill="#5B93FF"/>
<path d="M10.6665 72.0287C10.6665 74.9741 13.0545 77.3621 15.9998 77.3621H74.6665C77.6118 77.3621 79.9998 74.9741 79.9998 72.0287V18.6954C79.9998 15.7501 77.6118 13.3621 74.6665 13.3621H15.9998C13.0545 13.3621 10.6665 15.7501 10.6665 18.6954V72.0287ZM13.3332 18.6954C13.3332 17.2224 14.5268 16.0287 15.9998 16.0287H74.6665C76.1395 16.0287 77.3332 17.2224 77.3332 18.6954V72.0287C77.3332 73.5017 76.1395 74.6954 74.6665 74.6954H15.9998C14.5268 74.6954 13.3332 73.5017 13.3332 72.0287V18.6954Z" fill="#5B93FF"/>
<path d="M16 18.696H18.6667V21.3627H16V18.696Z" fill="#5B93FF"/>
<path d="M21.3333 18.696H23.9999V21.3627H21.3333V18.696Z" fill="#5B93FF"/>
<path d="M26.6667 18.696H29.3334V21.3627H26.6667V18.696Z" fill="#5B93FF"/>
<path d="M16 24.03H74.6667V26.6967H16V24.03Z" fill="#5B93FF"/>
<path d="M16 30.696H26.6667V33.3627H16V30.696Z" fill="#5B93FF"/>
<path d="M16 36.03H24V38.6967H16V36.03Z" fill="#5B93FF"/>
<path d="M45.3333 41.3621C40.1783 41.3621 36 45.5404 36 50.6954C36 55.8504 40.1783 60.0287 45.3333 60.0287C50.4883 60.0287 54.6667 55.8504 54.6667 50.6954C54.6607 45.5434 50.4853 41.3681 45.3333 41.3621ZM45.3333 57.3621C41.6517 57.3621 38.6667 54.3771 38.6667 50.6954C38.6667 47.0137 41.6517 44.0287 45.3333 44.0287C49.015 44.0287 52 47.0137 52 50.6954C51.9953 54.3754 49.0133 57.3574 45.3333 57.3621Z" fill="#5B93FF"/>
<path d="M66.6667 46.6954C66.6667 45.9587 66.07 45.3621 65.3333 45.3621H61.8093C61.527 44.4861 61.175 43.6337 60.7547 42.8154L63.2467 40.3251C63.7667 39.8041 63.7667 38.9604 63.2467 38.4394L57.5893 32.7821C57.0683 32.2621 56.2247 32.2621 55.7037 32.7821L53.2133 35.2727C52.3937 34.8541 51.542 34.5021 50.6667 34.2194V30.6954C50.6667 29.9587 50.07 29.3621 49.3333 29.3621H41.3333C40.5967 29.3621 40 29.9587 40 30.6954V34.2194C39.1247 34.5021 38.273 34.8541 37.4533 35.2727L34.963 32.7821C34.442 32.2621 33.5983 32.2621 33.0773 32.7821L27.42 38.4394C26.9 38.9604 26.9 39.8041 27.42 40.3251L29.9107 42.8154C29.7993 43.0337 29.692 43.2527 29.5907 43.4741C29.3093 44.0887 29.0647 44.7187 28.8573 45.3621H25.3333C24.5967 45.3621 24 45.9587 24 46.6954V54.6954C24 55.4321 24.5967 56.0287 25.3333 56.0287H28.8573C29.1397 56.9047 29.4917 57.7571 29.912 58.5754L27.42 61.0657C26.9 61.5867 26.9 62.4304 27.42 62.9514L33.0773 68.6087C33.5983 69.1287 34.442 69.1287 34.963 68.6087L37.4533 66.1181C38.273 66.5367 39.1247 66.8887 40 67.1714V70.6954C40 71.4321 40.5967 72.0287 41.3333 72.0287H49.3333C50.07 72.0287 50.6667 71.4321 50.6667 70.6954V67.1714C51.542 66.8887 52.3937 66.5367 53.2133 66.1181L55.7037 68.6087C56.2247 69.1287 57.0683 69.1287 57.5893 68.6087L63.2467 62.9514C63.7667 62.4304 63.7667 61.5867 63.2467 61.0657L60.7547 58.5754C61.175 57.7571 61.527 56.9047 61.8093 56.0287H65.3333C66.07 56.0287 66.6667 55.4321 66.6667 54.6954V46.6954ZM64 53.3621H60.808C60.2 53.3621 59.6693 53.7737 59.5173 54.3621C59.1767 55.6854 58.6517 56.9554 57.9573 58.1327C57.6483 58.6561 57.7333 59.3227 58.1627 59.7527L60.417 62.0084L56.6463 65.7807L54.3907 63.5247C53.9603 63.0947 53.2937 63.0101 52.77 63.3194C51.5927 64.0137 50.3233 64.5391 49 64.8794C48.4117 65.0314 48 65.5621 48 66.1701V69.3621H42.6667V66.1701C42.6667 65.5621 42.255 65.0314 41.6667 64.8794C40.3433 64.5391 39.074 64.0137 37.8967 63.3194C37.373 63.0101 36.7063 63.0947 36.276 63.5247L34.0203 65.7807L30.2497 62.0084L32.504 59.7527C32.9333 59.3227 33.0183 58.6561 32.7093 58.1327C32.015 56.9554 31.49 55.6854 31.1493 54.3621C30.9973 53.7737 30.4667 53.3621 29.8587 53.3621H26.6667V48.0287H29.8587C30.4667 48.0287 30.9973 47.6171 31.1493 47.0287C31.3647 46.1894 31.655 45.3721 32.0163 44.5851C32.2247 44.1287 32.456 43.6837 32.7093 43.2517C33.0173 42.7281 32.933 42.0624 32.504 41.6327L30.2497 39.3771L34.0203 35.6047L36.276 37.8614C36.7063 38.2914 37.373 38.3754 37.8967 38.0657C39.074 37.3721 40.3433 36.8461 41.6667 36.5057C42.255 36.3541 42.6667 35.8227 42.6667 35.2157V32.0287H48V35.2207C48 35.8287 48.4117 36.3594 49 36.5114C50.3233 36.8517 51.5927 37.3771 52.77 38.0714C53.2937 38.3807 53.9603 38.2961 54.3907 37.8661L56.6463 35.6101L60.417 39.3824L58.1627 41.6381C57.7333 42.0681 57.6483 42.7347 57.9573 43.2581C58.6517 44.4354 59.1767 45.7054 59.5173 47.0287C59.6693 47.6171 60.2 48.0287 60.808 48.0287H64V53.3621Z" fill="#5B93FF"/>
<path d="M66.6665 69.3621H74.6665V72.0287H66.6665V69.3621Z" fill="#5B93FF"/>
</svg>