<svg width="16" height="17" viewBox="0 0 16 17" fill="none" xmlns="http://www.w3.org/2000/svg">
<g clip-path="url(#clip0_207_5578-504899)">
<path d="M3.26036 11.0752C4.83848 12.9616 6.73818 14.4469 8.90644 15.4979C9.73197 15.8891 10.836 16.3533 12.066 16.4328C12.1422 16.4361 12.2152 16.4395 12.2914 16.4395C13.117 16.4395 13.78 16.1543 14.3204 15.5675C14.3238 15.5642 14.3304 15.5576 14.3337 15.5509C14.526 15.3189 14.7448 15.11 14.9736 14.8879C15.1294 14.7387 15.2885 14.5828 15.441 14.4237C16.1472 13.6877 16.1472 12.7528 15.4344 12.04L13.4419 10.0474C13.1037 9.69598 12.6992 9.51032 12.2749 9.51032C11.8505 9.51032 11.4427 9.69598 11.0946 10.0441L9.90768 11.231C9.79828 11.168 9.68555 11.1116 9.57946 11.0586C9.44685 10.9923 9.32418 10.9293 9.21477 10.8597C8.13396 10.1734 7.15261 9.27824 6.21436 8.12781C5.74026 7.52772 5.42198 7.02379 5.19985 6.5099C5.5115 6.2281 5.80325 5.93303 6.08506 5.64459C6.18452 5.54182 6.28729 5.43904 6.39007 5.33626C6.74813 4.9782 6.94042 4.56378 6.94042 4.14273C6.94042 3.72167 6.75145 3.30725 6.39007 2.94919L5.40209 1.96121C5.28605 1.84517 5.17664 1.73245 5.06392 1.61641C4.84511 1.39097 4.61634 1.15889 4.3909 0.950021C4.04942 0.615168 3.64826 0.439453 3.22389 0.439453C2.80284 0.439453 2.39836 0.615168 2.04361 0.953336L0.803664 2.19329C0.352773 2.64418 0.0974891 3.19121 0.0444431 3.82445C-0.0185491 4.61683 0.127327 5.45893 0.50528 6.47675C1.08547 8.05155 1.96073 9.51363 3.26036 11.0752ZM0.853395 3.89407C0.893179 3.45313 1.06226 3.08512 1.38054 2.76685L2.61386 1.53353C2.80615 1.34787 3.01833 1.25172 3.22389 1.25172C3.42613 1.25172 3.63168 1.34787 3.82066 1.54016C4.04279 1.74571 4.25165 1.96121 4.4771 2.18997C4.58982 2.30601 4.70586 2.42205 4.8219 2.5414L5.80988 3.52938C6.01543 3.73494 6.12153 3.9438 6.12153 4.14936C6.12153 4.35491 6.01543 4.56378 5.80988 4.76933C5.7071 4.87211 5.60433 4.9782 5.50155 5.08098C5.19322 5.39262 4.90478 5.68769 4.58651 5.9695C4.57988 5.97613 4.57656 5.97944 4.56993 5.98608C4.29475 6.26125 4.33785 6.52317 4.40416 6.72209C4.40748 6.73203 4.41079 6.73867 4.41411 6.74861C4.66939 7.36196 5.02414 7.94546 5.5778 8.64169C6.57242 9.86838 7.62007 10.8199 8.77383 11.5526C8.91639 11.6454 9.06889 11.7184 9.21145 11.7913C9.34407 11.8576 9.46674 11.9206 9.57615 11.9902C9.58941 11.9969 9.59935 12.0035 9.61261 12.0101C9.72202 12.0665 9.82811 12.093 9.93421 12.093C10.1994 12.093 10.3718 11.9239 10.4282 11.8676L11.6681 10.6276C11.8604 10.4353 12.0693 10.3325 12.2749 10.3325C12.5268 10.3325 12.7324 10.4884 12.8617 10.6276L14.8609 12.6235C15.2587 13.0213 15.2554 13.4523 14.8509 13.8734C14.7117 14.0225 14.5658 14.1651 14.41 14.3143C14.1779 14.5397 13.9359 14.7718 13.717 15.0337C13.3358 15.4448 12.8816 15.6371 12.2948 15.6371C12.2384 15.6371 12.1787 15.6338 12.1224 15.6305C11.0349 15.5609 10.0237 15.1365 9.2645 14.7751C7.20234 13.7772 5.39214 12.3615 3.89028 10.5646C2.65364 9.076 1.82148 7.69018 1.27113 6.20489C0.929648 5.29316 0.800349 4.56046 0.853395 3.89407Z" fill="#FBFBFB"/>
</g>
<defs>
<clipPath id="clip0_207_5578-504899">
<rect width="16" height="16" fill="white" transform="translate(0 0.439453)"/>
</clipPath>
</defs>
</svg>