<svg width="84" height="43" viewBox="0 0 84 43" fill="none" xmlns="http://www.w3.org/2000/svg">
<path fill-rule="evenodd" clip-rule="evenodd" d="M45.2331 1.01917C45.5056 0.975334 45.9598 1.979 46.2308 1.89034C46.5177 1.79171 46.9187 0.94744 47.3097 0.997748C47.477 1.01966 48.1415 2.35008 48.1415 2.35008C53.4941 2.61407 60.1018 9.10129 60.9531 9.75778C61.3625 10.0746 63.0959 11.8677 66.2638 13.2569C67.5663 13.8287 68.8748 14.0743 70.0877 13.9841C71.7065 13.8676 73.5171 12.446 74.6303 10.5099C76.027 8.08816 76.6197 3.86928 80.6498 1.47791C81.2142 1.14319 82.4923 0.39505 83.2315 1.33795C83.8262 2.10153 83.3341 3.36172 82.7159 3.96491C82.3239 4.34596 81.6146 4.73148 80.2643 5.36755C79.807 5.58522 79.0609 6.14359 78.77 6.37122C77.323 7.47251 76.275 9.97495 75.1095 12.715C75.1095 12.715 74.6119 14.0613 72.4217 15.5093C72.0517 15.7484 72.3844 15.9526 72.7878 16.4681C73.3034 17.151 74.3384 19.9319 74.2039 24.1637C74.1825 24.9149 74.4864 25.2411 74.8286 25.8563C75.4203 26.9172 76.5923 26.6801 76.5624 28.0723C76.5226 29.9412 77.9038 30.3392 77.4605 31.2019C77.1367 31.8305 77.2493 32.4406 77.2503 33.0543C77.2503 33.3636 77.4177 33.8159 76.7771 33.783C74.1506 33.6246 74.326 30.1021 74.3753 28.8897C74.4171 28.7293 74.2966 28.4424 74.2762 28.4285C74.1457 28.3343 72.5104 27.0622 72.4013 26.9541C70.4149 24.9343 69.1054 23.1177 68.3737 21.2519C67.8886 20.0076 67.3895 18.7808 66.5367 17.9923C65.5814 17.1212 64.4118 16.631 63.3843 16.6246C56.0782 16.5872 54.5744 13.3819 52.587 11.7845C52.5267 11.7407 52.3454 11.6381 52.2403 11.6291C52.1288 11.6376 52.0426 11.7691 51.9699 11.8304C51.2033 12.6348 50.4293 12.8973 49.3902 12.8973C46.9217 12.8973 44.2658 10.7336 43.7981 11.2157C43.441 11.5918 43.7513 12.3658 43.0948 12.4953C42.1449 12.6856 41.1627 11.7482 41.2404 10.9542C41.3843 9.53214 42.8383 9.11574 44.1144 8.97029C45.1708 8.85872 46.0326 9.14761 46.2303 9.17003C46.8186 9.25271 46.9217 8.54043 46.8255 8.08019C46.7155 7.58209 46.2507 7.47799 45.7651 7.33354C45.1743 7.15672 44.5168 7.64784 44.076 7.49792C43.5575 7.31213 43.5167 7.04813 43.0903 6.66659C42.5434 6.19141 41.9128 6.0634 41.9148 5.39346C41.9148 4.77283 42.6684 4.72252 42.8831 4.15369C42.9927 3.86878 42.9618 3.57191 43.0589 3.39907C43.3139 2.93485 43.7916 2.95676 44.1766 2.5817C44.7001 2.05969 44.9617 1.06001 45.2331 1.01917ZM21.6661 39.7313C22.1722 39.7188 22.6011 39.3054 22.6006 38.7944L22.6051 22.0956H28.104V40.5023C28.104 41.4044 27.3818 42.1406 26.4793 42.1406H16.86C15.9624 42.1406 15.2317 41.4049 15.2317 40.5023V22.0956H20.7352L20.7342 38.7944C20.7342 39.3054 21.1621 39.7188 21.6661 39.7313ZM31.7631 22.0956H48.4229C48.8987 22.0964 49.3546 22.2863 49.6904 22.6233C50.0261 22.9604 50.2141 23.417 50.2131 23.8928V42.1406H44.7036V25.4025C44.6996 24.8895 44.2793 24.483 43.7707 24.483C43.2572 24.483 42.8457 24.8795 42.8378 25.3881V42.1411H37.3527V25.3886C37.3408 24.88 36.9283 24.4835 36.4143 24.4835C36.1689 24.4818 35.9328 24.5778 35.7582 24.7502C35.5835 24.9227 35.4847 25.1576 35.4834 25.403V42.1406H29.9744V23.8928C29.9729 23.4172 30.1607 22.9605 30.4962 22.6234C30.8317 22.2863 31.2875 22.0964 31.7631 22.0956ZM11.5607 37.1038H6.00099V42.1406H0.5V22.0956H11.5956C12.5888 22.0956 13.3644 22.9031 13.3644 23.9008V35.2962C13.3658 35.7754 13.1764 36.2354 12.8379 36.5746C12.4995 36.9138 12.0399 37.1042 11.5607 37.1038ZM7.86736 25.4374C7.87081 25.1873 7.77459 24.9461 7.59993 24.767C7.42527 24.588 7.18653 24.4858 6.93641 24.483H6.00099V34.6218H6.93641C7.42106 34.6218 7.87184 34.2363 7.86736 33.6799V25.4374ZM59.4483 42.1406V37.1078H57.577V42.1406H52.08V23.8928C52.08 22.8966 52.8819 22.0956 53.8691 22.0956H63.1566C63.6326 22.096 64.0888 22.2857 64.4247 22.6228C64.7606 22.96 64.9486 23.4169 64.9473 23.8928L64.9473 42.1406H59.4483ZM59.4483 34.6258V25.3955C59.4349 24.8855 59.0229 24.493 58.5099 24.493C58.0005 24.4921 57.5849 24.9006 57.577 25.41V34.6258H59.4483Z" fill="#A5C4FF"/>
</svg>