<svg width="62" height="46" viewBox="0 0 62 46" fill="none" xmlns="http://www.w3.org/2000/svg">
<path fill-rule="evenodd" clip-rule="evenodd" d="M60.9704 18.0949C60.4115 14.8866 56.2717 14.5759 53.5805 15.0724C50.889 15.569 47.5777 16.9971 44.2038 18.5706C42.9092 19.1743 41.4106 19.9699 39.9661 20.7635C38.8351 20.564 37.7348 20.4127 36.792 20.4127C34.5361 20.4127 32.632 21.2204 31.6174 21.6341C30.6034 22.0482 30.2923 22.3997 30.3755 22.6074C30.4583 22.8144 31.0376 22.7104 31.9897 22.3791C32.9421 22.0482 33.7497 21.6957 35.9019 21.4685C36.6353 21.3908 37.5049 21.4551 38.4658 21.5958C36.7462 22.5567 35.2514 23.4082 34.4954 23.7661C32.9226 24.5111 30.73 25.8362 26.7551 25.981C22.7803 26.1257 21.601 24.4078 20.2971 22.7518C18.993 21.0955 17.7305 17.8677 16.4677 15.5283C15.205 13.1892 12.4111 11.7406 12.4111 11.7406C15.5369 11.0161 18.3099 9.00834 18.6412 5.92427C18.9724 2.83987 16.9859 0.501496 13.2807 0.0870702C9.57547 -0.327013 6.38806 0.97752 4.27658 2.447C2.16509 3.91648 0.881779 6.56627 1.29586 8.2428C1.7096 9.91966 2.93064 10.2095 3.86249 9.9402C4.79435 9.67087 5.18722 8.63601 5.06299 8.2428C4.93877 7.84959 4.46274 7.31128 4.02813 7.47691C3.59317 7.64255 3.38647 7.5392 3.38647 7.5392C2.31019 6.40064 3.13802 4.06158 5.45654 2.73686C7.54475 1.54355 9.3828 1.37894 11.4207 1.67462C10.6396 2.04935 9.89024 2.48712 9.18021 2.9836C7.54475 4.12216 6.48936 6.35752 6.22003 9.17295C5.9507 11.9884 6.05405 13.2922 5.86789 17.0597C5.68206 20.8272 5.49556 23.1861 4.81249 23.9937C4.12942 24.801 2.78417 25.442 2.12163 25.8564C1.4591 26.2708 1.56279 26.9118 2.53572 26.726C3.5083 26.5401 4.64754 25.8571 5.72347 25.3393C6.79975 24.8219 7.8969 24.532 9.69799 24.5111C11.4991 24.4899 11.4365 24.5522 11.5401 24.2209C11.6438 23.8897 11.4159 23.8274 10.8157 23.3305C10.2154 22.8336 10.0087 22.5437 10.0501 21.3018C10.0792 20.4223 10.0669 15.6987 10.0573 12.3857C11.3868 12.73 11.8728 14.4907 12.2639 15.9198C12.6777 17.431 13.2783 19.8737 14.2512 21.6536C16.0057 24.865 17.8109 27.1599 21.3919 28.2776C24.9729 29.3956 28.0778 28.2776 31.1205 27.1188C33.9075 26.0573 37.5429 23.7295 40.3935 21.9452C41.799 22.2405 43.339 22.6194 44.9693 22.9783C48.6328 23.7849 51.8209 23.9721 54.0768 23.7439C56.3323 23.5173 61.5292 21.3032 60.9704 18.0949ZM10.0526 10.8643C10.0509 10.2093 10.0498 9.68741 10.0498 9.38078C10.0498 7.60057 10.029 4.35053 11.2503 3.19144C12.0785 2.40502 12.4714 2.14562 12.9402 2.01318C14.5038 2.58914 14.7735 3.76807 14.9162 5.18006C15.0818 6.81552 14.3159 8.28535 12.9084 9.56866C11.9255 10.4646 10.7024 10.7644 10.0526 10.8643ZM51.9666 22.2552C49.3586 22.4835 46.9148 22.0064 44.5556 21.6341C43.7041 21.4993 42.749 21.3028 41.7716 21.1068C44.776 19.3994 49.477 17.6986 52.0289 17.3701C54.7612 17.0186 55.9412 17.8461 55.8997 19.2951C55.8587 20.744 54.5747 22.0273 51.9666 22.2552ZM24.5074 10.8567C24.7261 10.9538 24.6231 11.2379 24.6231 11.7355V18.0531C24.6231 18.4012 24.7562 18.6 25.0215 18.4344C25.2863 18.2687 25.8503 17.8211 26.0159 17.8872C26.1819 17.9532 26.5635 18.1199 26.0495 18.9487C25.5355 19.7776 24.5903 20.9055 23.8607 20.9883C23.1311 21.0712 22.0702 20.9883 21.6226 20.4408C21.1746 19.8932 20.9922 19.4453 20.9922 18.8488V13.4103C20.9922 12.9623 20.8929 12.9462 20.6274 12.9462C20.3618 12.9462 19.9145 12.9291 19.8646 12.6642C19.8146 12.399 19.9139 12.2827 20.3618 12.117C20.8098 11.9511 23.3302 11.1554 23.7614 11.0226C24.1923 10.8898 24.3582 10.7906 24.5074 10.8567ZM22.3518 8.94982C22.6338 8.17025 22.7002 7.57342 22.6502 7.19219C22.6006 6.81096 22.2858 6.64498 22.3019 6.49578C22.3183 6.34623 22.8823 6.16417 23.529 5.94857C24.1758 5.73298 24.7891 5.45099 25.2039 5.35174C25.6183 5.25216 25.8671 5.74974 25.3199 7.20896C24.7727 8.66783 23.7282 9.62981 23.1646 9.96141C22.601 10.293 22.2235 10.4313 22.0534 10.177C21.9535 10.0278 22.0698 9.72939 22.3518 8.94982ZM32.5328 17.8208C31.8196 18.6172 31.0236 19.4292 29.7804 19.164C28.5367 18.8988 27.9067 17.8872 27.9067 16.776V11.6195C27.9067 11.1027 27.9505 11.0446 27.7075 10.96C27.1302 11.0025 26.7524 10.9508 26.7788 10.7574C26.8455 10.2595 27.276 10.2927 27.8068 9.82866C28.3376 9.36462 29.1336 8.51865 29.7472 7.57345C30.3604 6.62859 30.6092 5.35177 30.7919 4.82099C30.9743 4.29056 31.1068 4.05819 31.3888 4.15778C31.6708 4.2577 31.6208 4.43976 31.6208 4.98697V8.61687C31.6783 8.70927 31.7526 8.76402 31.8535 8.75102C32.2344 8.70106 32.6002 8.53542 32.7987 8.55185C32.9972 8.56828 33.0639 8.85026 33.0639 9.09906C33.0639 9.32526 33.0184 9.57919 31.6208 10.0703V15.9804C31.6208 16.4451 31.4384 16.7931 31.9028 16.594C32.3672 16.3948 32.7991 15.9807 33.0971 16.0967C33.3952 16.2124 33.246 17.0245 32.5328 17.8208ZM39.7683 15.7394C39.0552 16.5361 38.2592 17.3482 37.0152 17.083C35.7719 16.8171 35.1416 15.8055 35.1416 14.6946V9.53843C35.1416 9.02134 35.1857 8.96316 34.9424 8.87864C34.3654 8.92107 33.9879 8.86905 34.014 8.67604C34.0807 8.1788 34.5112 8.21131 35.042 7.74727C35.5728 7.28322 36.3688 6.43726 36.9824 5.49239C37.596 4.54719 37.8441 3.27072 38.0271 2.73994C38.2095 2.2095 38.342 1.97714 38.624 2.07672C38.906 2.17665 38.856 2.35871 38.856 2.90626V6.53582C38.9135 6.62821 38.9877 6.68331 39.0887 6.66996C39.4696 6.62 39.8354 6.45471 40.0339 6.47114C40.2324 6.48791 40.2991 6.76921 40.2991 7.018C40.2991 7.24386 40.2529 7.49813 38.856 7.98956V13.8997C38.856 14.3644 38.6736 14.7124 39.138 14.5136C39.6024 14.3141 40.0342 13.9003 40.3316 14.016C40.6301 14.1313 40.4808 14.9434 39.7683 15.7394ZM49.1772 4.72001C48.4247 4.01949 47.0237 3.25053 45.1267 4.2587C43.2291 5.26687 42.0327 6.53171 41.1269 9.28314C40.2214 12.0349 42.9903 14.325 43.6395 14.6327C44.289 14.9403 45.2972 15.5214 46.8351 14.479C48.3737 13.4363 48.938 12.3597 49.1084 11.9668C49.2795 11.5736 49.0917 11.0096 48.5102 11.4028C47.9295 11.796 47.126 12.7703 45.8954 12.3942C44.9738 12.1126 44.5987 11.4956 44.3609 10.9449C45.1723 10.4214 47.6995 8.78966 48.6133 8.1901C49.7066 7.47247 49.8096 7.48958 49.9801 7.01081C50.1512 6.53137 49.9291 5.42053 49.1772 4.72001ZM46.6988 7.98469C46.0746 8.67323 45.278 9.27211 43.9584 9.90693C43.7523 9.23823 43.649 8.24478 44.4087 6.90807C45.3998 5.16482 46.4254 4.63472 46.8525 5.26748C47.2796 5.90024 47.3651 7.24961 46.6988 7.98469ZM51.5012 4.51502C51.2846 4.40688 51.1597 4.44658 50.8863 4.49791C50.6121 4.54924 50.4243 4.34391 50.5783 4.13893C50.7326 3.93394 51.2452 3.55784 51.7233 3.13041C52.2017 2.70332 52.6805 2.31012 53.2274 2.36145C53.7749 2.41278 54.4587 2.46411 55.0907 3.57495C55.0907 3.57495 56.013 2.293 56.5948 1.96824C56.5948 1.96824 57.449 2.83987 57.9958 3.11364C58.5434 3.38673 58.8675 3.57495 59.3808 3.16463C59.8934 2.75431 59.9957 2.68621 60.1494 2.82276C60.3031 2.95964 60.1152 3.66016 59.312 4.42947C58.5085 5.19843 57.6375 5.88218 56.8682 5.66008C56.0989 5.43798 55.2098 4.78845 55.2098 4.78845V9.76156C55.2098 10.1719 55.3303 10.189 55.7232 10.0011C56.116 9.81289 56.526 9.43714 56.7484 9.64213C56.9702 9.84746 56.9363 10.4457 56.0305 11.3683C55.1246 12.2909 54.9877 12.616 53.5011 12.616C52.0139 12.616 51.5354 10.9922 51.5354 10.548V4.94245C51.5354 4.60023 51.6385 4.58347 51.5012 4.51502ZM9.12751 33.7733L10.5655 30.9222C10.5655 30.9222 8.64806 29.7368 6.25151 29.7368C3.85496 29.7368 2.26536 30.8473 1.58401 32.8907C0.902997 34.9341 1.81124 37.1283 2.8201 37.6081C3.8293 38.0876 5.64579 38.7176 6.45308 39.0711C7.26037 39.4246 7.68951 40.6361 7.03348 41.2415C6.37745 41.8465 4.8888 42.3766 2.49225 40.3076L0.927979 43.2082C0.927979 43.2082 3.02201 44.8984 5.57016 44.8984C8.11831 44.8984 10.2623 43.7886 10.9686 41.4423C11.6753 39.0961 10.8177 36.8251 8.62274 36.0685C6.4281 35.3119 4.96443 35.2362 5.14136 33.7979C5.31794 32.3602 7.86575 32.5375 9.12751 33.7733ZM22.5236 32.5753C21.7412 30.5062 19.1681 30.1284 18.5124 30.1284H12.1797V44.5087H15.8633V39.7913H18.4368C19.37 39.7913 20.3542 39.7153 21.7669 38.5552C23.1796 37.3944 23.3059 34.6443 22.5236 32.5753ZM17.5536 36.8131H15.8634V33.0542H17.1248C18.26 33.0542 19.0926 33.508 19.0926 34.997C19.0926 36.4849 18.2603 36.8131 17.5536 36.8131ZM31.4541 29.6273C27.1028 29.6273 23.5752 33.0707 23.5752 37.3183C23.5752 41.5659 27.1028 45.0093 31.4541 45.0093C35.8054 45.0093 39.333 41.5659 39.333 37.3183C39.333 33.0707 35.8054 29.6273 31.4541 29.6273ZM31.4541 41.4369C29.2167 41.4369 27.4036 39.5927 27.4036 37.3183C27.4036 35.0439 29.2167 33.1997 31.4541 33.1997C33.6912 33.1997 35.5046 35.0439 35.5046 37.3183C35.5046 39.5927 33.6912 41.4369 31.4541 41.4369ZM43.9813 39.1105L47.4028 44.496H52.0046L47.6047 38.6854C47.6047 38.6854 48.2204 38.6854 49.3826 37.9675C50.5444 37.2495 51.1939 34.8232 50.4759 32.8061C49.758 30.7895 47.4675 30.1399 46.1688 30.1399H40.2214V44.496H43.981V39.1105H43.9813ZM46.0326 33.1819C46.6476 33.3872 47.0236 34.4464 46.8868 35.3697C46.7506 36.2927 45.3146 36.703 44.8362 36.703H43.9813V33.0111C44.7551 33.007 45.4669 32.9937 46.0326 33.1819ZM61.072 30.1399H51.2278V33.1819H54.304V44.496H57.9955V33.1819H61.072V30.1399Z" fill="#A5C4FF"/>
</svg>