<svg width="20" height="21" viewBox="0 0 20 21" fill="none" xmlns="http://www.w3.org/2000/svg">
<path d="M18.6945 8.6025L14.8013 12.3975L15.7207 17.7575C15.7607 17.9919 15.6645 18.2288 15.472 18.3687C15.3632 18.4481 15.2339 18.4881 15.1045 18.4881C15.0051 18.4881 14.9051 18.4644 14.8139 18.4163L10.0001 15.8856L5.18697 18.4156C4.97697 18.5269 4.72135 18.5088 4.52885 18.3681C4.33635 18.2281 4.2401 17.9912 4.2801 17.7569L5.19947 12.3969L1.30572 8.6025C1.13572 8.43625 1.07385 8.1875 1.1476 7.96188C1.22135 7.73625 1.41697 7.57062 1.6526 7.53625L7.03322 6.755L9.43948 1.87875C9.6501 1.45187 10.3501 1.45187 10.5607 1.87875L12.967 6.755L18.3476 7.53625C18.5832 7.57062 18.7789 7.73563 18.8526 7.96188C18.9264 8.18813 18.8645 8.43563 18.6945 8.6025Z" fill="#FAB400"/>
</svg>